<svg id="Layer_1" data-name="Layer 1" xmlns="http://www.w3.org/2000/svg" viewBox="0 0 1080 1080"><defs><style>.cls-1,.cls-2{fill:#fff;}.cls-1{opacity:0.5;}</style></defs><path class="cls-1" d="M216.42,354.92H888.09c91.79,0,166.2,82.86,166.2,185.08h0c0,102.22-74.41,185.08-166.2,185.08H216.42"/><path class="cls-2" d="M888.09,750.79H216.42V699.38H888.09c77.47,0,140.5-71.5,140.5-159.38s-63-159.38-140.5-159.38H216.42V329.21H888.09c51.79,0,100.32,22.28,136.65,62.74C1060.37,431.63,1080,484.21,1080,540s-19.63,108.37-55.26,148C988.41,728.51,939.88,750.79,888.09,750.79Z"/><polygon class="cls-2" points="114.85 663.46 88.77 691.52 88.77 691.51 88.77 388.49 88.77 388.48 114.85 416.54 126.15 406.02 88.77 365.82 88.77 365.82 78.64 354.92 78.63 354.92 63.08 338.19 47.53 354.92 47.52 354.92 37.36 365.83 37.36 365.85 0 406.02 11.3 416.54 37.36 388.5 37.36 388.51 37.36 691.5 11.3 663.46 0 673.98 37.36 714.15 37.36 714.16 47.52 725.08 47.52 725.08 63.08 741.81 78.63 725.08 78.64 725.08 85.25 717.97 126.15 673.98 114.85 663.46"/></svg>