<svg id="Layer_1" data-name="Layer 1" xmlns="http://www.w3.org/2000/svg" viewBox="0 0 1080 1080"><defs><style>.cls-1{opacity:0.5;}.cls-2{fill:#fff;}</style></defs><g class="cls-1"><rect class="cls-2" x="312.25" y="154.61" width="455.51" height="768.67" rx="78"/></g><path class="cls-2" d="M712.24,941.07H367.76a73.39,73.39,0,0,1-73.31-73.31V210.13a73.39,73.39,0,0,1,73.31-73.31H712.24a73.39,73.39,0,0,1,73.31,73.31V867.76A73.39,73.39,0,0,1,712.24,941.07ZM367.76,172.4A37.77,37.77,0,0,0,330,210.13V867.76a37.77,37.77,0,0,0,37.72,37.73H712.24A37.77,37.77,0,0,0,750,867.76V210.13a37.77,37.77,0,0,0-37.72-37.73Z"/><rect class="cls-2" x="312.25" y="815.1" width="455.51" height="35.59"/><rect class="cls-2" x="312.25" y="249.37" width="455.51" height="35.59"/><rect class="cls-2" x="444.83" y="202.45" width="190.34" height="17.79" rx="8.9"/><rect class="cls-2" x="489.52" y="870.46" width="100.96" height="17.79" rx="8.9"/><path class="cls-2" d="M540,1080A540.14,540.14,0,0,1,329.8,42.44a540.14,540.14,0,0,1,420.4,995.12A536.72,536.72,0,0,1,540,1080ZM540,35.59C261.87,35.59,35.59,261.87,35.59,540S261.87,1044.41,540,1044.41,1044.41,818.13,1044.41,540,818.13,35.59,540,35.59Z"/><rect class="cls-2" x="522.21" y="17.79" width="35.59" height="1044.41" transform="translate(-223.68 540) rotate(-45)"/></svg>