<svg id="Layer_1" data-name="Layer 1" xmlns="http://www.w3.org/2000/svg" viewBox="0 0 1080 1080"><defs><style>.cls-1,.cls-3{fill:#fff;}.cls-1{opacity:0.5;}.cls-2{fill:#2e3192;}.cls-4{fill:#00a651;}.cls-5{fill:#fff200;}.cls-6{fill:#ed1c24;}</style></defs><path class="cls-1" d="M1052.69,431.67a407.74,407.74,0,0,0-39.54-131.31C980.42,234,933.69,179.1,874.86,134.6,783.51,65.5,679.8,30.4,565.88,24.65a514.43,514.43,0,0,0-229.35,41.5q-137.23,60-222.29,183.31C64,322.4,34.86,403.24,26.23,491.36A516.06,516.06,0,0,0,51.89,707.19c29.78,85.36,78.26,158.37,146,218.2q138.39,122.22,323.25,130.29c11.1.48,22.46.64,33.38-1.1,32.65-5.25,55.65-23.65,66.35-55,10.78-31.55,6.31-61.31-17-86.35C581.54,889.4,575.5,861.78,583.72,831c9.65-36.31,42.3-61,80-61.33,21-.19,42.11,0,63.18,0,14.41,0,28.81.06,43.19,0a273.73,273.73,0,0,0,54.42-5.46Q933.9,741.34,1000.6,651.53c31.31-42.16,49.08-89.81,54.18-142.06C1057.34,483.48,1055.91,457.55,1052.69,431.67Z"/><path class="cls-2" d="M768.89,224.91c0,48.64-37.12,85.78-85.7,85.79-48.37,0-85.78-37.45-85.78-85.89s37.39-85.74,85.89-85.74S768.89,176.19,768.89,224.91Z"/><path class="cls-3" d="M683.2,334.59c-61.5,0-109.68-48.22-109.69-109.78,0-29.81,11.29-57.49,31.77-77.94s48.18-31.69,78-31.69h0c29.9,0,57.57,11.25,77.93,31.67s31.55,48.13,31.55,78.07-11.23,57.6-31.62,78S713.08,334.59,683.2,334.59ZM683.29,163c-17.08,0-32.79,6.3-44.25,17.73s-17.74,27.09-17.74,44.12c0,35.34,26.61,62,61.89,62S745,260.19,745,224.91h0C745,189.6,718.47,163,683.3,163Z"/><path class="cls-3" d="M534.08,1079.9c-4.76,0-9.42-.15-14-.35-128.39-5.7-242.11-51.54-338-136.25C112,881.37,60.57,804.59,29.33,715.06A540,540,0,0,1,2.45,489c9-92.34,40-177.5,92.12-253.13,59-85.54,137.14-150,232.39-191.66A538.41,538.41,0,0,1,567.08.79c59.73,3,116.82,14,169.67,32.54a561,561,0,0,1,152.52,82.21c62.85,47.55,111.74,106.18,145.31,174.25a433.47,433.47,0,0,1,41.82,138.94c3.94,31.62,4.62,58,2.16,83.08-5.58,57.16-25.36,109-58.77,154C972,730.19,907.93,771.15,829.36,787.5a294.26,294.26,0,0,1-59.15,6c-10.37.06-20.88,0-31,0q-16.15,0-32.31,0c-14.11,0-28.69-.07-43,.06-27.29.28-50.24,17.79-57.1,43.58-6.28,23.55-1.67,42.56,14.5,59.86,14.57,15.64,23.77,33.36,27.35,52.7,3.39,18.32,1.66,37.73-5.16,57.69-6.74,19.74-17.64,35.89-32.39,48-14.42,11.84-32.18,19.52-52.79,22.83A153.38,153.38,0,0,1,534.08,1079.9Zm6.19-1032A491,491,0,0,0,346.09,88c-87,38-158.35,96.89-212.17,175C86.48,331.9,58.25,409.51,50,493.69A492,492,0,0,0,74.46,699.33C103,781,149.81,851.05,213.72,907.48c87.53,77.3,191.32,119.13,308.5,124.33,9.54.41,19.61.6,28.54-.83,24.32-3.9,39.87-16.69,47.52-39.09,8.34-24.41,4.44-44.8-11.9-62.33-27.32-29.23-36.23-65.46-25.74-104.77a105,105,0,0,1,38.06-57,107.64,107.64,0,0,1,64.76-22.09c14.56-.13,29.29-.1,43.52-.06l32.25,0c10.08,0,20.51,0,30.71,0a247.37,247.37,0,0,0,49.67-4.95c66.77-13.9,121.2-48.69,161.8-103.42,28.18-37.95,44.86-81.73,49.59-130.15,2.11-21.47,1.47-44.51-2-72.53v0a385.7,385.7,0,0,0-37.25-123.66c-30.25-61.36-74.42-114.27-131.29-157.29C775.65,89.51,676.14,54.14,564.67,48.51Q552.49,47.9,540.27,47.9Z"/><path class="cls-4" d="M396.66,310.7c-48.47,0-85.79-37.39-85.78-85.86s37.28-85.77,85.81-85.77,85.82,37.34,85.83,85.8S445.05,310.73,396.66,310.7Z"/><path class="cls-3" d="M396.71,334.59h-.07c-61.5,0-109.67-48.25-109.65-109.76,0-29.85,11.27-57.54,31.71-78s48.14-31.68,78-31.68c61.51,0,109.71,48.17,109.73,109.69,0,29.79-11.29,57.48-31.79,78S426.48,334.59,396.71,334.59Zm0-47.79h0c17,0,32.68-6.3,44.14-17.76s17.78-27.15,17.78-44.16c0-35.3-26.64-61.92-61.94-61.92s-61.9,26.61-61.91,61.89,26.59,61.93,61.89,62Z"/><path class="cls-5" d="M769.32,454.37c.51-52.54,40.7-85.77,85-86,48.83-.28,86.48,36.58,86.77,85.48.28,48.21-37.18,86.18-85.59,86.09S770.08,504,769.32,454.37Z"/><path class="cls-3" d="M855.65,563.82h-.23c-61.76-.12-109-47-110-109.09v-.59c.3-31.11,12.19-59.41,33.48-79.69a109.43,109.43,0,0,1,75.25-30c30-.18,57.86,10.9,78.47,31.16S964.78,423.67,965,453.7c.17,29.84-11.06,57.64-31.63,78.29S885.29,563.82,855.65,563.82ZM793.22,454.3C793.9,490,820.06,516,855.52,516h.13a61.21,61.21,0,0,0,43.81-17.77C911,486.71,917.26,471,917.16,454c-.2-35.25-27-61.72-62.34-61.72h-.4C824.38,392.42,793.76,413.78,793.22,454.3Z"/><path class="cls-6" d="M139,454.09c0-48.67,37.08-85.67,85.76-85.68s85.85,37.21,85.86,85.71c0,48.31-37.54,85.87-85.88,85.89S139,502.56,139,454.09Z"/><path class="cls-3" d="M224.68,563.9c-29.75,0-57.38-11.26-77.83-31.72s-31.78-48.25-31.76-78.11h0c0-29.91,11.26-57.61,31.64-78s48.09-31.58,78-31.58h0c29.86,0,57.56,11.24,78,31.64s31.72,48.11,31.73,77.95c0,61.54-48.2,109.76-109.76,109.79Zm-61.8-109.79c0,17.08,6.29,32.81,17.76,44.28s27.06,17.72,44,17.72h0c35.35,0,62-26.66,62-62s-26.64-61.83-61.95-61.83h0c-35.25,0-61.85,26.58-61.87,61.81Z"/></svg>