<svg id="Layer_1" data-name="Layer 1" xmlns="http://www.w3.org/2000/svg" viewBox="0 0 1080 1080"><defs><style>.cls-1,.cls-2{fill:#fff;}.cls-2{opacity:0.5;}</style></defs><path class="cls-1" d="M815.81,583.86c-2.19-4-2.55-7.14-.19-11.54,17.65-32.92,14-72.46-9.32-100.46-3.5-4.19-3.94-7.85-3.07-12.77,5.24-29.92-2.36-56.26-22.7-78.8-11.66-13-26.33-21.28-42.59-26.22a9.42,9.42,0,0,1-.34-2c.12-.94.34-1.87.51-2.8,5.57-28.65-2.88-52.34-25.62-70.61-5.85-4.7-12.89-7.91-18.94-12.4-22.19-16.44-45.71-30.4-72.17-38.81-16.33-5.18-32.91-8.83-50.21-5.28C559,224.72,548.93,231,540,239.75,521,220.4,498.45,218,473.9,223.42a183.76,183.76,0,0,0-55.13,21.94c-16.81,10.08-33.28,20.8-49.37,32-16.53,11.53-26.33,27.77-28.32,48-.91,9.26-.16,18.7-.16,29.06.64-.3-.14.18-1,.44-42.58,12.86-73,57.07-62.86,107.11.55,2.67-.84,6.47-2.6,8.75q-37,48.29-9.56,102.4c1.81,3.61,1.87,6-.06,9.6-22.34,41.46-11.26,90.32,26.87,118.16,4.11,3,5.46,6,5.4,11-.37,43.55,24.16,80.1,64.18,96.67a19.55,19.55,0,0,1,7.79,6.55c27.45,38.31,74.57,53.62,118.22,38.2,22-7.78,39-21.86,52.61-41.91,1.84,2.37,3.13,4,4.37,5.64,41.83,56.62,124.76,56.08,166.07-.92a25.23,25.23,0,0,1,10-8.13c38.46-16.39,63.06-53.05,62.66-94.83-.07-6.09,1.69-9.64,6.63-13.26A90.26,90.26,0,0,0,815.81,583.86ZM524.49,756.7c-.06,33-21.26,60.49-52.09,69-31.37,8.63-63.65-4.36-80.6-32.87a24.27,24.27,0,0,0-14.4-11.51c-33.69-10.83-53.89-43.5-49-78.59,1.85-13.19.3-16.14-11.66-22.4A60.56,60.56,0,0,1,287.59,607c.47-1.3,1.1-2.55,1.9-4.39,5.54,3.06,10.74,6.2,16.17,8.87a83.19,83.19,0,0,0,37.65,8.8c9.66-.09,16.46-5.9,16.87-14.48.44-9-5.8-15.59-16-16.13-22.46-1.18-39.95-10.81-51.53-30.2-14.14-23.68-10.44-54,9.65-73,8.34-7.89,10.27-15.18,6.72-26.3-7.58-23.77-1.71-45.3,16.54-62.18s40.26-21.14,63.31-11.74c23.49,9.56,36.34,27.89,37.94,53.57.91,14.71,12,22.14,23.31,15.66,5.49-3.12,7.58-7.94,7.66-14.16.57-41.12-31.12-80.24-71.64-88.27-12.21-2.4-14.79-5.5-15.13-18.11a39.09,39.09,0,0,1,27.4-38.17,38.41,38.41,0,0,1,43.23,14.84c1.35,1.95,2.41,4.06,3.68,6.07,4.77,7.61,13.3,10,20.89,5.92,7.15-3.85,9.9-12.16,6.22-20.19-6-13.12-15.76-22.88-28.16-30.07-1.44-.83-2.89-1.64-4.27-2.53-.35-.21-.51-.71-1.11-1.61,18.92-9.79,38.13-18,59.93-17.28,12.88.43,24.26,11.38,25.58,24.3a67.32,67.32,0,0,1,.16,7.11v72.77c-9.22-1.8-17.44-4-25.78-4.87-9.86-1-16.56,4.9-17.24,13.73-.71,9.41,4.89,15.55,15.22,16.65,17.55,1.91,27.76,12.38,27.77,29Q524.62,583.7,524.49,756.7ZM720.05,605.88a14.82,14.82,0,0,0,14.7,14.39c17.5.44,33.62-4.34,48.53-13.43,1.82-1.1,3.56-2.33,5.38-3.44a7.84,7.84,0,0,1,2.05-.35,55.5,55.5,0,0,1,3.11,39c-4.79,17.61-15.5,30.59-31.72,39-10.2,5.25-12.36,9.52-10.49,21a71,71,0,0,1-46.91,78.56,31.14,31.14,0,0,0-17.52,14.07,70.74,70.74,0,0,1-83.53,29.79C572.45,813.75,552,782.81,556,749.57c3.64-30.58,21.2-50.86,50.33-60.91,10.52-3.63,15.57-11.31,12.72-20.11s-11.71-13.44-21.93-9c-12.25,5.27-23.71,12.38-35.48,18.79-1.76,1-3.23,2.46-6,4.65v-11.6q0-106.9,0-213.82c0-20.31,8.43-29.75,28.67-32.21,8.91-1.08,14.89-7.79,14.49-16.27s-6.93-14.72-16-14.62a62.9,62.9,0,0,0-13.33,1.65c-4.34,1-8.47,2.75-13.85,4.57V353.7q0-34.11,0-68.2c0-24.52,11.37-35.49,35.67-33.26,17.89,1.64,34.18,8.5,50.63,17.47-2.91,1.79-5,3.14-7.2,4.43a67.36,67.36,0,0,0-26.36,28.07c-4.52,9.05-1.91,17.52,6.39,21.71,8,4,15.81,1.23,20.86-7.44,10.82-18.56,29.34-25.82,48.25-18.92,19.42,7.08,30.1,29.26,23,48.55a10.31,10.31,0,0,1-6.61,5.57c-45.29,8.63-77.54,45.09-77.75,88.37-.06,10.28,5.5,17.23,14.29,17.86s16-6.1,16.45-16.67c.88-20.29,9.21-36.5,25.65-48.28,21.49-15.37,49.45-14.86,71,.94,20.36,15,29.63,42.17,21.36,66.4-3.63,10.64-1.94,17.82,6.22,25.76,18,17.58,23.38,39.38,14.78,63.16s-26.35,37.43-51.93,40.07c-2.59.27-5.2.36-7.76.83A14.9,14.9,0,0,0,720.05,605.88Z"/><path class="cls-2" d="M524.53,410.71c0-16.64-10.22-27.11-27.77-29-10.33-1.1-15.93-7.24-15.22-16.65.68-8.83,7.38-14.71,17.24-13.73,8.34.84,16.56,3.07,25.78,4.87V283.41a67.32,67.32,0,0,0-.16-7.11c-1.32-12.92-12.7-23.87-25.58-24.3-21.8-.72-41,7.49-59.93,17.28.6.9.76,1.4,1.11,1.61,1.38.89,2.83,1.7,4.27,2.53,12.4,7.19,22.15,16.95,28.16,30.07,3.68,8,.93,16.34-6.22,20.19-7.59,4.1-16.12,1.69-20.89-5.92-1.27-2-2.33-4.12-3.68-6.07a38.41,38.41,0,0,0-43.23-14.84A39.09,39.09,0,0,0,371,335c.34,12.61,2.92,15.71,15.13,18.11,40.52,8,72.21,47.15,71.64,88.27-.08,6.22-2.17,11-7.66,14.16-11.35,6.48-22.4-.95-23.31-15.66-1.6-25.68-14.45-44-37.94-53.57-23.05-9.4-45.05-5.16-63.31,11.74S301.44,436.48,309,460.25c3.55,11.12,1.62,18.41-6.72,26.3-20.09,19-23.79,49.28-9.65,73,11.58,19.39,29.07,29,51.53,30.2,10.2.54,16.44,7.1,16,16.13-.41,8.58-7.21,14.39-16.87,14.48a83.19,83.19,0,0,1-37.65-8.8c-5.43-2.67-10.63-5.81-16.17-8.87-.8,1.84-1.43,3.09-1.9,4.39a60.56,60.56,0,0,0,29.19,73.26c12,6.26,13.51,9.21,11.66,22.4-4.93,35.09,15.27,67.76,49,78.59a24.27,24.27,0,0,1,14.4,11.51c16.95,28.51,49.23,41.5,80.6,32.87,30.83-8.48,52-36,52.09-69Q524.76,583.72,524.53,410.71ZM351.14,571.4c-.37-9,5.87-15.6,16.06-16.21,16.68-1,28.18-9.06,35.58-24.85-33.83-8.54-56.74-28.11-68-59.88-3.26-9.17-4.18-19.34-4.94-29.15-.71-9.42,5.65-15.69,14.29-16,9-.27,15.49,5.07,16,14.45.76,15.42,5.11,29.27,15.51,40.89a60.32,60.32,0,0,0,85.4,5.05c10.32-9,18.57-9.87,25.31-2.51s5.22,16.42-4.87,25.63A82.15,82.15,0,0,1,442.87,529c-6.16,1.31-8.75,4.08-10.64,10-8.81,27.37-35.71,47-63.68,47.11C358.37,586.11,351.49,580.33,351.14,571.4ZM477,618.7c-31.87,1.3-56.5,25.36-59,57.2-.41,5.26,1.92,7.37,6,9.69,31.16,17.69,47.58,44.4,48,80.42.1,7.87-4.69,13.42-11.64,14.85-7.5,1.54-15-1.83-17.48-8.75-1.41-3.91-1.39-8.33-1.93-12.52-4-31.11-27.61-52.93-58.64-54.13-10-.39-16.75-6.57-16.84-15.42-.08-8.43,6.57-15.12,16.16-15.37,4.55-.11,5.94-1.42,6.37-6,4.1-44.11,43.4-80.08,88.11-80.94,10.27-.18,17.65,6,17.95,15.1S487.5,618.27,477,618.7Z"/><path class="cls-2" d="M788.66,603.4c-1.82,1.11-3.56,2.34-5.38,3.44-14.91,9.09-31,13.87-48.53,13.43a15.21,15.21,0,0,1-2.28-30.15c2.56-.47,5.17-.56,7.76-.83,25.58-2.64,43.3-16.17,51.93-40.07s3.24-45.58-14.78-63.16c-8.16-7.94-9.85-15.12-6.22-25.76,8.27-24.23-1-51.45-21.36-66.4-21.51-15.8-49.47-16.31-71-.94-16.44,11.78-24.77,28-25.65,48.28-.44,10.57-7.59,17.31-16.45,16.67s-14.35-7.58-14.29-17.86c.21-43.28,32.46-79.74,77.75-88.37a10.31,10.31,0,0,0,6.61-5.57c7.1-19.29-3.58-41.47-23-48.55-18.91-6.9-37.43.36-48.25,18.92-5,8.67-12.88,11.47-20.86,7.44-8.3-4.19-10.91-12.66-6.39-21.71a67.36,67.36,0,0,1,26.36-28.07c2.16-1.29,4.29-2.64,7.2-4.43-16.45-9-32.74-15.83-50.63-17.47-24.3-2.23-35.68,8.74-35.67,33.26q0,34.11,0,68.2v46.95c5.38-1.82,9.51-3.59,13.85-4.57a62.9,62.9,0,0,1,13.33-1.65c9-.1,15.57,6.09,16,14.62s-5.58,15.19-14.49,16.27c-20.24,2.46-28.65,11.9-28.67,32.21q0,106.9,0,213.82V683c2.81-2.19,4.28-3.68,6-4.65,11.77-6.41,23.23-13.52,35.48-18.79,10.22-4.4,19,.12,21.93,9s-2.2,16.48-12.72,20.11C577.17,698.71,559.61,719,556,749.57c-3.94,33.24,16.48,64.18,47.68,74.85a70.74,70.74,0,0,0,83.53-29.79,31.14,31.14,0,0,1,17.52-14.07A71,71,0,0,0,751.61,702c-1.87-11.52.29-15.79,10.49-21,16.22-8.37,26.93-21.35,31.72-39a55.5,55.5,0,0,0-3.11-39A7.84,7.84,0,0,0,788.66,603.4ZM575,508.69c-8-7.73-9.06-17-2.73-23.71,6.74-7.09,15.1-6.66,23.71,1.22,30.08,27.55,77,19.94,95.11-16.13,4.2-8.34,5.25-18.41,6.87-27.85,1.52-8.81,6.86-14.92,15-15.25,7.86-.31,15.51,5.42,15.8,13.23A79.29,79.29,0,0,1,726.79,462c-8.61,35.06-30.49,57.85-65,68.5-1.76.54-3.49,1.18-5.91,2,5.86,13.2,15.32,21.09,29,23.83,2.77.57,5.63.71,8.44,1.08,8.55,1.1,14.54,7.83,14.13,15.82s-7.05,14.18-15.52,14.54c-28.78,1.21-57.55-19.56-66.27-48.36-1.52-5-3.68-7-8.78-8.15A85.68,85.68,0,0,1,575,508.69ZM729,703.81c-.53,7.56-6.32,13.14-14.28,14.31-7.42,1.09-15.21,1.52-22.1,4.16-23.85,9.15-36.88,26.89-39.24,52.46-.38,4.15-1.08,8.58-2.94,12.2-3,5.9-10.7,8.28-17.3,6.39A14.9,14.9,0,0,1,622.5,779c.33-35.12,15.85-61.83,46-79.33,7.59-4.39,8.68-9,7.38-16.34-5.36-30.38-27.59-50.17-58.57-51.87-10.46-.58-17-7-16.6-16.3.4-8.87,7.34-14.73,17.41-14.73,43.42,0,83.51,36,88.34,79.13.26,2.33.67,4.64,1,7.28a78.39,78.39,0,0,1,8.66.7C724.33,689.17,729.54,695.91,729,703.81Z"/><path class="cls-1" d="M402.79,530.35C369,521.8,346,502.24,334.73,470.45c-3.26-9.16-4.19-19.34-4.93-29.15-.71-9.41,5.63-15.68,14.28-15.94,9-.28,15.49,5.06,15.95,14.44.77,15.42,5.11,29.27,15.53,40.89a60.32,60.32,0,0,0,85.4,5.05c10.31-9.05,18.57-9.87,25.3-2.51s5.22,16.42-4.87,25.62A81.92,81.92,0,0,1,442.87,529c-6.16,1.31-8.76,4.09-10.65,10-8.8,27.37-35.7,47-63.67,47.11-10.18,0-17.05-5.74-17.41-14.67s5.87-15.6,16.05-16.22C383.88,554.18,395.38,546.14,402.79,530.35Z"/><path class="cls-1" d="M476.16,587.75c10.27-.2,17.64,6,17.94,15.09s-6.6,15.43-17.1,15.86c-31.88,1.3-56.51,25.36-59,57.19-.42,5.27,1.92,7.38,6,9.7,31.16,17.69,47.57,44.39,48,80.41.1,7.89-4.69,13.43-11.65,14.86-7.5,1.54-15-1.83-17.47-8.75-1.4-3.9-1.4-8.33-1.94-12.53-4-31.1-27.61-52.91-58.63-54.12-10-.39-16.75-6.57-16.84-15.43-.09-8.42,6.56-15.12,16.16-15.36,4.54-.11,5.95-1.42,6.37-6C392.15,624.56,431.45,588.59,476.16,587.75Z"/><path class="cls-1" d="M655.87,532.49c5.85,13.2,15.32,21.08,29,23.84,2.78.56,5.63.71,8.45,1.07,8.53,1.1,14.53,7.83,14.11,15.83s-7,14.17-15.5,14.53c-28.79,1.21-57.57-19.56-66.28-48.37-1.52-5-3.68-7-8.78-8.14A85.72,85.72,0,0,1,575,508.69c-8-7.74-9.07-17-2.72-23.7,6.73-7.1,15.09-6.67,23.7,1.21,30.08,27.55,77,19.95,95.12-16.13,4.19-8.34,5.23-18.42,6.86-27.84,1.52-8.83,6.86-14.93,15-15.26,7.86-.31,15.51,5.41,15.81,13.23a79.58,79.58,0,0,1-2,21.78c-8.61,35.07-30.48,57.86-65,68.5C660,531,658.28,531.67,655.87,532.49Z"/><path class="cls-1" d="M707.53,686.84a78,78,0,0,1,8.65.7c8.16,1.63,13.36,8.36,12.81,16.27-.53,7.56-6.33,13.14-14.28,14.31-7.43,1.1-15.21,1.51-22.1,4.16-23.85,9.16-36.88,26.89-39.24,52.46-.39,4.15-1.08,8.58-2.94,12.21-3,5.9-10.71,8.26-17.3,6.38A14.9,14.9,0,0,1,622.5,779c.34-35.11,15.84-61.84,46-79.32,7.58-4.4,8.67-9,7.37-16.35-5.36-30.38-27.58-50.17-58.56-51.88-10.47-.57-17-7-16.61-16.29.39-8.87,7.33-14.73,17.41-14.73,43.42,0,83.51,35.94,88.33,79.14C706.73,681.89,707.14,684.2,707.53,686.84Z"/><rect class="cls-1" x="527.1" width="25.79" height="129.68" rx="12.2"/><rect class="cls-1" x="203.39" y="168.82" width="25.79" height="94.95" rx="12.2" transform="translate(-89.59 216.29) rotate(-45)"/><rect class="cls-1" x="203.39" y="816.24" width="25.79" height="94.95" rx="12.2" transform="translate(-241.5 1627.38) rotate(-135)"/><rect class="cls-1" x="850.81" y="816.24" width="25.79" height="94.95" rx="12.2" transform="translate(2085.18 863.71) rotate(135)"/><rect class="cls-1" x="850.81" y="168.82" width="25.79" height="94.95" rx="12.2" transform="translate(405.92 -547.38) rotate(45)"/><rect class="cls-1" x="51.94" y="475.16" width="25.79" height="129.68" rx="12.2" transform="translate(-475.16 604.84) rotate(-90)"/><rect class="cls-1" x="527.1" y="950.32" width="25.79" height="129.68" rx="12.2" transform="translate(1080 2030.32) rotate(-180)"/><rect class="cls-1" x="1002.26" y="475.16" width="25.79" height="129.68" rx="12.2" transform="translate(1555.16 -475.16) rotate(90)"/></svg>