<?xml version="1.0" encoding="utf-8"?>
<!-- Generator: Adobe Illustrator 24.3.0, SVG Export Plug-In . SVG Version: 6.00 Build 0)  -->
<svg version="1.1" id="Layer_1" xmlns="http://www.w3.org/2000/svg" xmlns:xlink="http://www.w3.org/1999/xlink" x="0px" y="0px"
	 viewBox="0 0 1080 1080" style="enable-background:new 0 0 1080 1080;" xml:space="preserve">
<style type="text/css">
	.st0{opacity:0.5;fill:#FFFFFF;}
	.st1{fill:#FFFFFF;}
	.st2{opacity:0.5;fill:#FFFFFF;enable-background:new    ;}
</style>
<path class="st0" d="M269.4,361.7c0.7,154.7,118.9,271,275.1,271h0.9c70.2-0.2,136.6-28.6,187.1-80s78.2-118.9,78-190.1
	c-0.6-152.1-119.5-271-270.9-271h-0.5c-73,0.1-141.2,28.3-192,79.4C296.7,221.8,269.1,289.5,269.4,361.7L269.4,361.7z"/>
<path class="st1" d="M766.8,134.6c-60-59.9-140.7-92.9-227.1-92.9H539c-86.4,0.2-167.2,33.6-227.4,94.2
	c-59.5,59.9-92.2,139.6-92.2,224.7v1.4c0.4,88.1,34,169.4,94.6,228.9c60.3,59.3,142.1,91.9,230.5,91.9h1.1
	c42.1-0.1,83.8-8.9,122.4-25.8c37.5-16.4,71.6-39.9,100.2-69.1C797,558.5,820,524,835.9,486.1c16.5-39.1,24.8-81.2,24.6-123.6
	C860.2,275.6,826.8,194.5,766.8,134.6z M732.5,552.8c-50.5,51.4-116.9,79.8-187.1,80h-0.9c-156.2,0-274.4-116.4-275.1-271.1v0
	c-0.3-72.2,27.3-139.9,77.7-190.6c50.8-51.1,119-79.3,192-79.4h0.5c151.4,0,270.3,118.9,270.9,271
	C810.8,433.8,783,501.4,732.5,552.8z"/>
<path class="st2" d="M229.8,184.6c-94.2,179.2-32.7,358.8,87,455.7c124,100.4,299.8,104.5,431.6,10.7
	C859.2,572,956.1,392.6,852.7,187.2c76-15.8,139.2,18.8,157,86.9c3.2,12.1,3.5,25.2,3.5,37.9c0.2,192.7,0.2,385.5,0.1,578.2
	c-0.1,74.3-48.8,122.9-122.9,122.9c-234.3,0.1-468.7,0.1-703,0c-71.5-0.1-120.5-48.4-120.7-119.9c-0.4-195.1-0.4-390.3-0.1-585.4
	c0-69.5,41.6-116,110.8-123C193.7,183.2,210.4,184.6,229.8,184.6z"/>
<path class="st1" d="M536.9,1038.2c-120.2,0-236.1,0-349.6-0.1c-85.6-0.1-145.5-59.6-145.7-144.8c-0.3-159.6-0.3-321.9-0.2-478.8
	c0-35.6,0-71.1,0-106.6c0-40.4,12.4-75.6,35.9-101.6s57.2-42.2,97.4-46.2c12.6-1.3,24.6-1,37.4-0.7c5.7,0.1,11.6,0.3,17.6,0.3h41.4
	l-19.2,36.6c-91.5,174.2-25.5,338.8,80.6,424.6c59.4,48.1,132.4,72.3,206,72.3c70,0,138.4-21.9,195.4-62.5
	c111.3-79.3,188.9-248.3,96.4-432.1l-14.6-29.1l31.9-6.6c43.3-9,83.9-4,117.5,14.6c34,18.8,58.4,50.9,68.8,90.5
	c4,15.2,4.3,30.8,4.3,44.2c0.3,232.7,0.3,411,0.1,578.3c-0.1,43.2-14.2,80.2-41,107s-63.7,40.9-106.9,40.9
	C767.8,1038.2,650.4,1038.2,536.9,1038.2z M190.6,209.1c-3.7,0.1-7.3,0.3-10.8,0.6c-56.1,5.7-88.3,41.4-88.3,98.1
	c0,35.5,0,71.1,0,106.6c-0.1,156.9-0.1,319.1,0.2,478.7c0.1,57.6,37.7,94.9,95.7,94.9c220.6,0.2,450.6,0.2,702.9,0
	c60.3,0,97.8-37.6,97.9-98c0.2-167.2,0.2-345.5-0.1-578.1c0-10.8-0.2-22.1-2.7-31.6c-11.8-45.2-47.9-71.5-95.6-72
	c36.5,88.5,41.7,179.7,14.9,265.6c-24.6,78.7-76.3,150.6-141.8,197.3c-34.4,24.5-72.5,43.3-112.9,55.7c-39.2,12-80,17.5-121,16.5
	c-83.2-1.9-163.4-31.4-228-83.7C234.9,606,188.3,531.9,168.7,449C150.2,369.8,157.8,287.6,190.6,209.1z"/>
<path class="st1" d="M602.5,524.3l-1,0.8c-19.5,15.4-43.3,23.7-67.2,23.5c-23.8-0.1-46.8-9.1-64.3-25.3c-18.1-17-29.1-38.4-31.8-62
	c-2.6-22.9,2.8-46.2,15.6-67.3c1.7-2.8,2.5-9.2,1.8-11.7c-7.8-26.5-17-53.4-25.9-79.4c-4.7-13.8-9.6-28.1-14.2-42.3
	c-5.7-17.3-6.3-32.7-1.7-45.6c3.7-10.3,12.4-24.2,33-31.5c14.3-5,28.3-4.5,40.7,1.5c14.4,7,25.2,20.4,31.9,39.9l4.4,12.6
	c12.5,36,25.4,73.2,36.9,110.5c2,6.3,2.4,6.4,7.6,7.9c35.7,10.3,59.3,37.4,66.4,76.2c6.2,34.2-4.6,65.8-31.3,91.5L602.5,524.3z
	 M461,231.7c-0.2,1-0.6,4.8,2.1,13.1c4.6,13.9,9.4,28.1,14.1,41.8c9,26.5,18.4,53.9,26.5,81.4c4.8,16.3,2,37.1-7,51.9
	c-14.2,23.4-11.3,48.9,7.7,66.8c16.7,15.7,44.6,15.5,65.3-0.2c13.8-13.6,19-28.6,15.9-45.6c-4.9-26.7-20.1-34-31.1-37.2
	c-21.8-6.3-34.6-19-41.4-41.2c-11.3-36.4-24.1-73.2-36.4-108.8l-4.4-12.6c-2.6-7.5-5.3-10.5-6.3-11.2c-0.9,0.1-1.7,0.3-2.5,0.6
	C462.6,230.8,461.8,231.2,461,231.7z"/>
</svg>
