<svg id="Layer_1" data-name="Layer 1" xmlns="http://www.w3.org/2000/svg" viewBox="0 0 1080 1080"><defs><style>.cls-1{fill:#fff;}</style></defs><polygon class="cls-1" points="190.83 663.46 164.76 691.52 164.76 691.51 164.76 388.49 164.76 388.48 190.83 416.54 202.13 406.02 164.76 365.82 164.76 365.82 154.62 354.92 154.62 354.92 139.06 338.19 123.51 354.92 123.51 354.92 113.35 365.83 113.35 365.85 75.98 406.02 87.28 416.54 113.35 388.5 113.35 388.51 113.35 691.5 87.28 663.46 75.98 673.98 113.35 714.15 113.35 714.16 123.51 725.08 123.51 725.08 139.06 741.81 154.62 725.08 154.62 725.08 161.23 717.97 202.13 673.98 190.83 663.46"/><path class="cls-1" d="M281.58,616.26l83.49-191.85a49.11,49.11,0,0,1,6.62-9.43q4.6-5.42,7.82-5.42,6.83,0,8.43,2.41l80.27,198.67a128.07,128.07,0,0,1,6,15.45,116.33,116.33,0,0,0,4.82,13q3.61,8,10.24,11.63a36.54,36.54,0,0,0,12.84,4.42c4.14.54,6.75.8,7.83.8a18.09,18.09,0,0,1,1.8,8q.19,5.22-1,6.42-11.65-.81-25.69-2t-26.89-1.2q-8.83,0-20.07.6t-21.47,1.41q-10.23.79-17.46,1.2a11.39,11.39,0,0,1-1.2-4.61,27.23,27.23,0,0,1,0-6.63c.26-2.13.66-3.21,1.2-3.21a50.23,50.23,0,0,0,12.24-1.8,26,26,0,0,0,11-5.42,8.37,8.37,0,0,0,3.21-6.42c0-.81-.8-3.28-2.41-7.43s-3.55-9.16-5.82-15-4.55-11.7-6.82-17.46-5-12.37-8.23-19.87c-1.34-1.06-2.27-1.6-2.81-1.6q-8.43-.41-16.25-.4H340.78q-9,0-19.46.4c-1.07,0-2,.67-2.81,2q-5.22,12-8.43,19.66t-5.62,13.25q-2.81,7.21-5.82,16t-3,10.84q0,4.82,6.82,7.82a58.47,58.47,0,0,0,14.25,4.22,87.8,87.8,0,0,0,9,1.2c1.34,1.34,1.87,3.88,1.61,7.63s-.67,6-1.21,6.82q-10-1.2-19.66-2.21a222.76,222.76,0,0,0-22.48-1,226.07,226.07,0,0,0-23.08,1q-9.44,1-19.86,2.21c-.81-.8-1.34-2.81-1.61-6a18.79,18.79,0,0,1,.8-8,32.81,32.81,0,0,0,8.23-1.8A84,84,0,0,0,260.11,650q5.82-2.81,7.83-6a88.35,88.35,0,0,0,7.62-13.85Q278,624.3,281.58,616.26Zm78.67-134-33.31,77.06c.26.8.53,1.2.8,1.2q6,.4,16.05.8t16.46.4q9.22,0,15.85-.2t15.46-.6c.53,0,.93-.53,1.2-1.6Z"/><path class="cls-1" d="M640.4,409.92a114.94,114.94,0,0,1,36.52,6,69.58,69.58,0,0,1,30.3,19.67q12.24,13.65,12.24,36.52a42.89,42.89,0,0,1-5,20.87,63.52,63.52,0,0,1-12.24,16.06A75.36,75.36,0,0,1,688,519.89a94.06,94.06,0,0,1-11,5.62c-1.61.54-2.41,1-2.41,1.41s.13.6.4.6q7.23.81,17.86,5.42a92.14,92.14,0,0,1,21.07,13,74.94,74.94,0,0,1,17.46,20.27,52.09,52.09,0,0,1,7,27.09,63.2,63.2,0,0,1-11.44,36.12A91.62,91.62,0,0,1,697,657.16a88.82,88.82,0,0,1-38.52,11.64q-21.29,1.59-43,1.2H524c-.8-1.34-1.27-3.74-1.4-7.22s.33-5.89,1.4-7.23c1.87-.26,4.68-.6,8.43-1a70.15,70.15,0,0,0,10.84-2c3.47-.93,5.48-2.21,6-3.81a47.26,47.26,0,0,0,2.81-15.25q.39-9.24.4-21.68V467.72q0-12.84-.4-21.88a46.65,46.65,0,0,0-2.81-15q-.81-2.81-6-4a71.27,71.27,0,0,0-10.84-1.61c-3.75-.26-6.56-.4-8.43-.4q-1.61-2-1.4-7.62t1.4-7.23q13.25.81,28.5,1t27.69.2q12.43,0,27.7-.61T640.4,409.92ZM607.48,523.5h20.07q14.85,0,24.28-11.83t9.43-33.92q0-28.08-8.62-39.93T628.75,426a119.46,119.46,0,0,0-12.24.6c-3.88.4-6.36,1.67-7.42,3.81a26.55,26.55,0,0,0-1.41,8q-.2,4.81-.2,11.24V523.5Zm0,15.26v88.3q0,2.81.2,10.63t2.61,11c1.61,2.14,4.88,3.48,9.84,4a138.45,138.45,0,0,0,15,.81,39.45,39.45,0,0,0,18.66-5q9.42-5,16-16.86t6.63-31.91a94,94,0,0,0-4.42-28.69A50.15,50.15,0,0,0,657.05,548q-10.63-9.22-29.5-9.23Z"/><path class="cls-1" d="M902.88,408q19.26,0,41.74,1.81a320.44,320.44,0,0,1,39.73,5.42q.39,1.6,2.41,10.23t4.61,19.27q2.61,10.63,4.42,19.26a78.41,78.41,0,0,1,1.8,10.64c0,1.07-1.07,2.28-3.21,3.61a12.63,12.63,0,0,1-6.82,2,21.83,21.83,0,0,1-3-.2,4.53,4.53,0,0,1-2.61-1.41,105.15,105.15,0,0,0-5.82-14.65,70.58,70.58,0,0,0-12.64-18.06q-8.43-9-22.28-15.05t-34.71-6q-27.71,0-44.55,15.05t-24.49,39.33a172.76,172.76,0,0,0-7.62,52,209.63,209.63,0,0,0,4.82,45,136.72,136.72,0,0,0,15.05,39.74A83.47,83.47,0,0,0,876,644.15q16,10.64,38.13,10.64,17.65,0,29.3-4.82a62.29,62.29,0,0,0,19.27-12,71.48,71.48,0,0,0,14.45-18.46,161.18,161.18,0,0,0,9.43-19.67q3.41-8.82,3.81-10.43,8.43,0,13.65,4.41a106.61,106.61,0,0,1-1.61,10.64q-1.6,9-4.21,20.07T993,644.15q-2.61,8.64-5,9.43Q969.49,660,949.43,666t-47.36,6a141.18,141.18,0,0,1-52.17-9.64A134,134,0,0,1,807,635.52a125.92,125.92,0,0,1-29.1-40.94,123.9,123.9,0,0,1-10.63-51.37,131.58,131.58,0,0,1,10.63-53,136.89,136.89,0,0,1,72.45-71.84A132.56,132.56,0,0,1,902.88,408Z"/></svg>