<svg id="Layer_1" data-name="Layer 1" xmlns="http://www.w3.org/2000/svg" viewBox="0 0 1080 1080"><defs><style>.cls-1,.cls-2{fill:#fff;}.cls-1{opacity:0.5;}</style></defs><polygon class="cls-1" points="888.67 25.36 888.67 908.5 730.89 1054.64 191.32 1054.64 191.32 25.36 888.67 25.36"/><path class="cls-2" d="M166,42.28v995.44A42.28,42.28,0,0,0,208.24,1080h495a96,96,0,0,0,65.23-25.57l27.16-25.15,67.71-62.72,20-18.5A96,96,0,0,0,914,877.65V42.28A42.28,42.28,0,0,0,871.76,0H208.24A42.28,42.28,0,0,0,166,42.28Zm575,968.49V933.86h83Zm-50.72-86.3v104.81H234.74a18.05,18.05,0,0,1-18.05-18V68.77a18.05,18.05,0,0,1,18.05-18H845.26a18.05,18.05,0,0,1,18,18V883.14H731.54A41.32,41.32,0,0,0,690.21,924.47Z"/><path class="cls-2" d="M369.21,635.11a5.71,5.71,0,0,1-3.94-1.63,5.32,5.32,0,0,1-1.76-4.08,6.77,6.77,0,0,1,.54-2.45l65.49-175.27a10.13,10.13,0,0,1,3.13-4.75,9.28,9.28,0,0,1,6.38-2h29.62a8.79,8.79,0,0,1,6.25,2,13.16,13.16,0,0,1,3.26,4.75L543.67,627a12.79,12.79,0,0,1,.27,2.45,5.53,5.53,0,0,1-1.63,4.08,5.25,5.25,0,0,1-3.8,1.63H514.87q-3.81,0-5.58-1.77a9,9,0,0,1-2.3-3.4l-12.78-33.15h-80.7l-12.77,33.15a9.25,9.25,0,0,1-2.31,3.4q-1.77,1.77-5.57,1.77ZM423,565.54H484.7l-31-84Z"/><path class="cls-2" d="M655.35,635.11a6.5,6.5,0,0,1-6.52-6.53V593.8H562.69a6.17,6.17,0,0,1-4.76-1.9,6.53,6.53,0,0,1-1.76-4.62V568.8a14.14,14.14,0,0,1,.68-3.94,11.33,11.33,0,0,1,2.31-4.21l80.16-111.14c2.35-3.08,5.71-4.62,10-4.62H679a6.49,6.49,0,0,1,6.52,6.52V561.74H709.7a6.86,6.86,0,0,1,5,1.76,6.47,6.47,0,0,1,1.76,4.76v19A6.49,6.49,0,0,1,710,593.8H685.51v34.78a6.5,6.5,0,0,1-6.52,6.53Zm-61.41-72.29h55.7V484.29Z"/></svg>