<svg id="Layer_1" data-name="Layer 1" xmlns="http://www.w3.org/2000/svg" viewBox="0 0 1080 1080"><defs><style>.cls-1,.cls-2{fill:#fff;}.cls-1{opacity:0.5;}</style></defs><path class="cls-1" d="M665.77,513.58V390.35H609.71a275.78,275.78,0,0,0-35.65-86l39.66-39.66-87.14-87.14-39.66,39.66a275.64,275.64,0,0,0-86-35.65V125.5H277.68v56.06a275.35,275.35,0,0,0-86,35.65L152,177.55,64.89,264.69l39.65,39.66a275.53,275.53,0,0,0-35.64,86H12.84V513.58H68.9a275.62,275.62,0,0,0,35.64,86L64.89,639.24,152,726.38l39.65-39.66a275.41,275.41,0,0,0,86,35.65v56.06H400.92V722.37a275.64,275.64,0,0,0,86-35.65l39.66,39.66,87.14-87.14-39.66-39.66a275.88,275.88,0,0,0,35.65-86ZM339.3,618.33A166.37,166.37,0,1,1,505.67,452,166.37,166.37,0,0,1,339.3,618.33Z"/><path class="cls-2" d="M413.76,791.27H264.85V732.43a287.63,287.63,0,0,1-71.21-29.51L152,744.53,46.73,639.24l41.62-41.62a287.59,287.59,0,0,1-29.52-71.2H0V377.51H58.83a288,288,0,0,1,29.52-71.2L46.73,264.69,152,159.39,193.65,201a287.4,287.4,0,0,1,71.2-29.51V112.66H413.76V171.5A287.72,287.72,0,0,1,485,201l41.62-41.62,105.29,105.3-41.62,41.62a287.59,287.59,0,0,1,29.52,71.2H678.6V526.42H619.77a287.59,287.59,0,0,1-29.52,71.2l41.62,41.62L526.58,744.53,485,702.92a287.72,287.72,0,0,1-71.2,29.51ZM290.52,765.59h97.56V712.12l10-2.27a262.42,262.42,0,0,0,82-34l8.67-5.46,37.83,37.83,69-69-37.82-37.83,5.46-8.67a262.33,262.33,0,0,0,34-82l2.27-10h53.47V403.18H599.46l-2.27-10a262.33,262.33,0,0,0-34-82l-5.47-8.67,37.83-37.83-69-69-37.83,37.83-8.68-5.46a262.27,262.27,0,0,0-82-34l-10-2.27V138.34H290.52v53.47l-10,2.27a262.27,262.27,0,0,0-82,34l-8.67,5.46L152,195.7l-69,69,37.83,37.83-5.47,8.67a262.47,262.47,0,0,0-34,82l-2.26,10H25.67v97.56H79.15l2.26,10a262.66,262.66,0,0,0,34,82l5.47,8.67L83,639.24l69,69,37.82-37.83,8.68,5.46a262.27,262.27,0,0,0,82,34l10,2.27ZM339.3,631.17a178.7,178.7,0,1,1,69.76-14.09A178.05,178.05,0,0,1,339.3,631.17Zm0-332.74c-84.66,0-153.53,68.88-153.53,153.54S254.64,605.5,339.3,605.5,492.83,536.62,492.83,452,424,298.43,339.3,298.43Z"/><path class="cls-1" d="M1067.16,780.88V700.1h-36.75A180.48,180.48,0,0,0,1007,643.72l26-26L975.92,560.6l-26,26a180.39,180.39,0,0,0-56.38-23.37V526.48H812.76v36.75a180.58,180.58,0,0,0-56.38,23.37l-26-26-57.12,57.12,26,26a180.39,180.39,0,0,0-23.37,56.38H639.14v80.78h36.75a180.48,180.48,0,0,0,23.37,56.38l-26,26,57.12,57.12,26-26a180.48,180.48,0,0,0,56.38,23.37V954.5h80.78V917.75a180.39,180.39,0,0,0,56.38-23.37l26,26L1033,863.26l-26-26a180.48,180.48,0,0,0,23.37-56.38Zm-214,68.67A109.06,109.06,0,1,1,962.21,740.49,109.06,109.06,0,0,1,853.15,849.55Z"/><path class="cls-2" d="M906.38,967.34H799.92V927.72a192.54,192.54,0,0,1-41.51-17.21l-28,28L655.1,863.26l28-28a192.54,192.54,0,0,1-17.21-41.51H626.3V687.26h39.62a192.54,192.54,0,0,1,17.21-41.51l-28-28,75.28-75.28,28,28a192.75,192.75,0,0,1,41.51-17.21V513.64H906.38v39.62a192.54,192.54,0,0,1,41.51,17.21l28-28,75.28,75.28-28,28a192.54,192.54,0,0,1,17.21,41.51H1080V793.72h-39.62a192.75,192.75,0,0,1-17.21,41.51l28,28-75.28,75.28-28-28a192.54,192.54,0,0,1-41.51,17.21Zm-80.79-25.68h55.12V907.5l10-2.27a167.34,167.34,0,0,0,52.38-21.71l8.67-5.46,24.17,24.17,39-39-24.17-24.17,5.46-8.67A167.43,167.43,0,0,0,1017.89,778l2.27-10h34.17V712.93h-34.17l-2.27-10a167.34,167.34,0,0,0-21.71-52.38l-5.46-8.67,24.17-24.17-39-39-24.17,24.17-8.67-5.46a167.34,167.34,0,0,0-52.38-21.71l-10-2.27V539.31H825.59v34.17l-10,2.27a167.53,167.53,0,0,0-52.38,21.71l-8.67,5.46-24.17-24.17-39,39,24.17,24.17-5.46,8.67a167.34,167.34,0,0,0-21.71,52.38l-2.27,10H652v55.12h34.16l2.27,10a167.43,167.43,0,0,0,21.71,52.38l5.46,8.67-24.17,24.17,39,39,24.17-24.17,8.67,5.46a167.6,167.6,0,0,0,52.38,21.72l10,2.26Zm27.56-79.27a121.89,121.89,0,1,1,86.2-35.7A121.13,121.13,0,0,1,853.15,862.39Zm0-218.12a96.23,96.23,0,1,0,96.22,96.22A96.32,96.32,0,0,0,853.15,644.27Z"/><path class="cls-1" d="M928.7,347.47V302.94H908.44a99.75,99.75,0,0,0-12.88-31.08l14.33-14.33L878.4,226l-14.33,14.33A99.75,99.75,0,0,0,833,227.49V207.23H788.46v20.26a99.85,99.85,0,0,0-31.08,12.88L743.05,226l-31.49,31.49,14.34,14.33A99.53,99.53,0,0,0,713,302.94H692.76v44.53H713a99.75,99.75,0,0,0,12.88,31.08l-14.33,14.33,31.49,31.49L757.38,410a99.85,99.85,0,0,0,31.08,12.88v20.26H833V422.92A99.75,99.75,0,0,0,864.07,410l14.33,14.33,31.49-31.49-14.33-14.33a99.75,99.75,0,0,0,12.88-31.08Zm-118,37.85a60.12,60.12,0,1,1,60.12-60.12A60.11,60.11,0,0,1,810.73,385.32Z"/><path class="cls-2" d="M841.78,452H779.67V429.7a108.34,108.34,0,0,1-20.87-8.65l-15.75,15.74-43.91-43.91,15.74-15.75a108.34,108.34,0,0,1-8.65-20.87H684V294.15h22.26a108.34,108.34,0,0,1,8.65-20.87l-15.74-15.75,43.91-43.92,15.75,15.75a108.34,108.34,0,0,1,20.87-8.65V198.44h62.11v22.27a108.34,108.34,0,0,1,20.87,8.65l15.75-15.75,43.92,43.92-15.75,15.75a108.34,108.34,0,0,1,8.65,20.87h22.27v62.11H915.22a108.34,108.34,0,0,1-8.65,20.87l15.75,15.75L878.4,436.79l-15.75-15.74a108.08,108.08,0,0,1-20.87,8.65Zm-44.53-17.57h27V415.9l6.84-1.55a90.53,90.53,0,0,0,28.34-11.75l5.93-3.74,13.08,13.08,19.06-19.06L884.38,379.8l3.74-5.94a90.48,90.48,0,0,0,11.75-28.33l1.55-6.85h18.49V311.73H901.42l-1.55-6.85a90.38,90.38,0,0,0-11.75-28.33l-3.74-5.94,13.08-13.08L878.4,238.47l-13.08,13.08-5.94-3.74a90.38,90.38,0,0,0-28.33-11.75l-6.84-1.55V216h-27v18.49l-6.84,1.55a90.43,90.43,0,0,0-28.34,11.75l-5.94,3.74-13.08-13.08L724,257.53l13.08,13.08-3.74,5.94a90.61,90.61,0,0,0-11.75,28.33L720,311.73H701.54v26.95H720l1.55,6.85a90.71,90.71,0,0,0,11.75,28.33l3.74,5.94L724,392.88l19.06,19.06,13.08-13.08,5.94,3.74a90.43,90.43,0,0,0,28.34,11.75l6.84,1.55Zm13.48-40.28a68.91,68.91,0,1,1,68.9-68.91A69,69,0,0,1,810.73,394.11Zm0-120.24a51.34,51.34,0,1,0,51.33,51.33A51.39,51.39,0,0,0,810.73,273.87Z"/></svg>