<svg id="Layer_1" data-name="Layer 1" xmlns="http://www.w3.org/2000/svg" viewBox="0 0 1080 1080"><defs><style>.cls-1,.cls-2{fill:#fff;}.cls-1{opacity:0.5;}</style></defs><path class="cls-1" d="M527.85,832.64Q495.23,792,517.2,729.46a138.84,138.84,0,0,1,13.32-26.3,241.17,241.17,0,0,1,21.3-28.29q9.31-10,16-3.33,7.31,6.66-2,16-24,25.31-20,47.26,12.63,76.56,199.71,76.56,79.22,0,144.79-14.31t117.49-43.61q-6-25.29-29.29-45.27-6-6-2.66-16l19.3-58.58q6-18.63,20.64,4,33.95,52.6,21.3,129.15Q1030.45,804,1008.49,818q-54.6,34.63-120.83,54.26T742.87,895.88Q585.76,903.88,527.85,832.64Zm249,137.8c2.67-3.56,6.43-4.66,11.32-3.33a141.68,141.68,0,0,1,25.63,12,155.35,155.35,0,0,1,23,16.65q5.31,5.31,2,12l-32,50.59q-4.66,6.64-12,1.33-6.66-5.33-47.93-30-7.33-4.67-2.66-11.32Z"/><path class="cls-2" d="M800.81,1073.59c-3.44,0-7.9-1-12.83-4.57l-.43-.33c-2.25-1.81-11.31-8-46.62-29l-.28-.18c-6.59-4.19-8.81-9.31-9.52-12.87s-.62-8.82,3.54-14.8l32.88-48.29c5.53-7.39,14.14-10.15,23.63-7.57l.78.24a153.15,153.15,0,0,1,27.73,13A167.34,167.34,0,0,1,844.37,987l.56.52c7,7,8.59,16.51,4.17,25.35l-.26.52L816.26,1065c-4.13,5.89-9.12,7.81-12.59,8.38A16.34,16.34,0,0,1,800.81,1073.59ZM756,1021.64c27.57,16.48,38.42,23.48,43.27,26.89l28.54-45.2a144.44,144.44,0,0,0-19.95-14.28,131,131,0,0,0-22.45-10.62Zm-2.39,3.53Zm75.18-21ZM712.51,908.26c-40.34,0-75.63-4.38-105.22-13.08C569.34,884,539.58,865.44,518.86,840l0-.05c-24.32-30.27-28.55-68.72-12.55-114.28l.06-.16A151.51,151.51,0,0,1,520.73,697a254,254,0,0,1,22.32-29.65l.29-.34c5.88-6.3,12.06-9.55,18.36-9.66a19.22,19.22,0,0,1,14.09,5.85,19.93,19.93,0,0,1,6.81,14.33c.14,6.2-2.72,12.29-8.49,18.11C561,709.51,555.28,722,557.23,732.71l0,.18c3.52,21.35,19.54,37.21,49,48.49,31.8,12.19,78.67,18.37,139.32,18.37,51.77,0,99.65-4.72,142.31-14,39-8.51,74.64-21.25,106.12-37.92-4.33-11.19-11.9-21.34-23-30.84l-.65-.6c-4.14-4.14-10.34-13.25-5.46-27.85L984.17,630c3.91-12.16,10.89-15.55,16.05-16.23,12.83-1.72,21.9,12.28,25.32,17.55,24.14,37.41,31.88,83.61,23,137.33l0,.16c-5,28.06-16.39,47.91-33.81,59C977.55,851.34,935.91,870,891,883.36s-94.48,21.4-147.49,24.09Q727.53,908.26,712.51,908.26Zm-175.65-82.9c36,44.22,105.09,64,205.43,58.95,51.17-2.6,99-10.4,142.08-23.17,42.91-12.71,82.58-30.52,117.91-52.93,11.7-7.44,19.58-22.06,23.41-43.43,7.89-47.85,1.29-88.52-19.62-120.91-.49-.77-1-1.46-1.4-2.09l-17.8,54c-.9,2.69-.59,3.59-.31,4,17.09,14.79,28,31.94,32.54,51l2,8.48-7.59,4.28c-35.45,20-76.07,35.09-120.71,44.84C848.51,818,799,822.92,745.54,822.92c-63.49,0-113.16-6.69-147.61-19.9-37.21-14.26-58.58-36.55-63.52-66.26a47.75,47.75,0,0,1,.15-17.59,112.86,112.86,0,0,0-6.45,14.2C514.79,771.35,517.66,801.44,536.86,825.36Zm22.73-148.49Zm447.63-42.17Z"/><path class="cls-1" d="M248.45,379.59Q215.83,339,237.8,276.41a138.76,138.76,0,0,1,13.31-26.3,242.28,242.28,0,0,1,21.3-28.29q9.31-10,16-3.33,7.32,6.67-2,16-24,25.3-20,47.26,12.65,76.57,199.71,76.56,79.22,0,144.79-14.31t117.49-43.6q-6-25.31-29.29-45.27-6-6-2.66-16l19.31-58.58q6-18.63,20.63,4,34,52.61,21.31,129.15Q751,351,729.08,365q-54.6,34.62-120.82,54.25T463.47,442.83Q306.35,450.83,248.45,379.59ZM509.4,90q4-6,12-3.32a142,142,0,0,1,25.63,12,156.75,156.75,0,0,1,23,16.64q5.32,5.34,2,12l-32,50.59q-5.32,7.34-11.32,2-2.66-2.65-10.64-7.65t-20-12.32l-20.64,32.62q-4.67,6.66-12,2-3.33-2.66-15.64-10.32t-32.95-20.3q-6.66-4-2-10.65l31.95-47.94q8-11.31,43.94,12.65ZM462.8,15.45q4-5.31,11.32-3.32a142.36,142.36,0,0,1,25.63,12,156.66,156.66,0,0,1,23,16.64q5.32,5.34,2,12l-32,50.6q-4.67,6.66-12,1.33-6.67-5.32-47.94-30-7.32-4-2.66-10.65Z"/><path class="cls-2" d="M433.11,455.22c-40.35,0-75.64-4.38-105.22-13.08-38-11.17-67.71-29.75-88.43-55.24l0,0c-24.33-30.27-28.55-68.72-12.56-114.28l.06-.16a150.63,150.63,0,0,1,14.41-28.5,252.57,252.57,0,0,1,22.31-29.66l.3-.33c5.88-6.3,12.05-9.56,18.35-9.67a19.33,19.33,0,0,1,14.09,5.85,19.89,19.89,0,0,1,6.81,14.33c.14,6.2-2.71,12.29-8.48,18.11-13.15,13.92-18.84,26.41-16.89,37.12l0,.19c3.53,21.35,19.54,37.21,49,48.48,31.8,12.19,78.67,18.37,139.32,18.37,51.77,0,99.65-4.72,142.32-14,39-8.51,74.63-21.25,106.12-37.92-4.33-11.19-11.91-21.34-23-30.84l-.65-.6c-4.13-4.13-10.34-13.25-5.46-27.85l19.29-58.53c3.91-12.16,10.89-15.55,16.06-16.23,12.84-1.7,21.9,12.29,25.31,17.55,24.14,37.41,31.88,83.61,23,137.34l0,.15c-5,28.06-16.39,47.91-33.81,59-37.16,23.57-78.79,42.27-123.75,55.59s-94.49,21.4-147.49,24.1Q448.13,455.22,433.11,455.22ZM257.46,372.31c36,44.22,105.08,64.05,205.42,58.95,51.17-2.6,99-10.4,142.08-23.17,42.91-12.71,82.58-30.52,117.92-52.93,11.69-7.44,19.57-22.06,23.41-43.43,7.88-47.84,1.28-88.52-19.62-120.91-.5-.76-1-1.46-1.4-2.08l-17.8,54c-.9,2.69-.6,3.59-.31,4,17.08,14.79,28,31.94,32.53,51l2,8.47-7.59,4.29c-35.45,20-76.07,35.08-120.72,44.83-44.28,9.67-93.83,14.58-147.26,14.58-63.49,0-113.15-6.7-147.61-19.91-37.21-14.26-58.58-36.55-63.52-66.25a47.81,47.81,0,0,1,.16-17.6,115.2,115.2,0,0,0-6.46,14.21C235.39,318.3,238.25,348.39,257.46,372.31ZM727.82,181.65ZM471.12,208a22.21,22.21,0,0,1-11.89-3.74l-.51-.33-.47-.37c-1.06-.85-4.36-3.21-14.55-9.56-8.51-5.27-19.57-12.09-32.86-20.24-6.21-3.75-8.38-8.61-9.11-12s-.71-8.87,3.56-15l32.07-48.1a19.77,19.77,0,0,1,4.83-4.81c-4.41-2.67-9.42-5.68-15.11-9.08-6.66-3.71-9-8.63-9.86-12.13s-.89-8.92,3.4-15.11L453.35,8.74l.18-.24C459.07,1.12,467.68-1.63,477.16,1l.79.24a154.66,154.66,0,0,1,27.71,13A168.88,168.88,0,0,1,530.34,32l.58.54c7,7,8.57,16.51,4.16,25.34l-.26.52-10.72,17,.94.29.18.06a155.3,155.3,0,0,1,27.71,13,170,170,0,0,1,24.67,17.88l.59.55c7,7,8.56,16.52,4.15,25.34l-.26.52L549.39,184.7c-4.83,6.65-10.26,8.52-14,8.92-3.54.38-8.92-.19-14.42-5.08l-.46-.44c-.3-.29-2.11-2-8.63-6-2.85-1.78-6.17-3.84-10.14-6.28l-14.83,23.41C482.85,205,477.2,208,471.12,208Zm1.05-23Zm-45.44-28.66c11.65,7.16,21.46,13.2,29.2,18,7.15,4.45,11.23,7.14,13.7,8.86l24.77-39.15,9.73,6c8.7,5.32,15.08,9.26,20.07,12.37,3.4,2.13,6.15,4,8.35,5.62l28.5-45.12a146.47,146.47,0,0,0-20-14.28,131.51,131.51,0,0,0-23-10.8L494,134l-9.65-6.43c-18.45-12.3-26.37-14.1-28.9-14.31Zm-2.54,3.81Zm18.08-93.33c27.37,16.37,38.15,23.32,43,26.71l28.55-45.2a146.55,146.55,0,0,0-20-14.29,132.27,132.27,0,0,0-22.43-10.61Z"/><path class="cls-1" d="M335.38,678.7q19.31,0,35.95,22,15.3,19.3,25.3,49.93t16.64,72.56a213,213,0,0,1,2.66,40.94A218.8,218.8,0,0,1,411.27,903q-16.65,78.54-69.23,114.5-35.3,24.62-70.9,37a244.74,244.74,0,0,1-70.89,13.64q-119.83,5.32-155.11-91.2-9.33-26.62-3.33-64.57,8.64-57.24,57.91-138.46,8-12.64,17.31-8,10,4.67.67,18Q75.76,845.79,75.76,886.4q0,38.61,30.62,67.23,30.62,28,101.85,25.3T352.69,919q36-28,37.28-44.6,1.32-16-14-26-45.28,42.62-90.54,22-54.58-24-21.3-108.51Q297.43,678,335.38,678.7Zm-4.66-143.13q4-5.31,11.32-3.33a153.61,153.61,0,0,1,26,12,148.27,148.27,0,0,1,23.3,16.64q5.32,5.34,2,12l-31.95,50.6q-5.34,7.34-12,1.33-2.67-2.65-11.65-8.32t-23.63-14.32l-22,36q-4.67,6.66-12,1.33-3.35-2.65-15.65-10t-33-20q-7.32-4-2-11.32l32-47.93q4-5.33,11.32-3.33a135.81,135.81,0,0,1,37.28,19.31Zm8,243.65q-14-16-25.3-16-10,0-19.3,14a33.41,33.41,0,0,0,22,10.66Q328.07,788.54,338.71,779.22Z"/><path class="cls-2" d="M187.88,1080c-77.91,0-129.57-33.29-153.62-99.09l-.06-.15c-6.82-19.48-8.11-43.1-3.83-70.21,5.94-39.42,26-87.44,59.45-142.66l.11-.19c12.47-19.71,27.56-14.46,32.12-12.24,7.29,3.45,10.06,8.77,11.09,12.63,1.81,6.76-.12,14.07-5.89,22.35-26.48,39.1-39.9,71.38-39.9,96,0,22.58,8.79,41.79,26.89,58.72,18,16.39,49.48,23.87,93.56,22.23,44.77-1.68,91.12-21,137.75-57.46,29.64-23,32.65-33.69,32.87-36.4A13.49,13.49,0,0,0,376,863.9c-14,11.55-28.26,19.14-42.54,22.61-17.58,4.26-35.32,2.41-52.73-5.51-21.75-9.57-35-25.54-39.26-47.46-4-20.49-.13-45.31,11.91-75.87,24.18-60.93,50.8-90.56,81.39-90.56h.72c16.55,0,31.7,8.94,45,26.46,11,13.89,20.12,31.86,27.15,53.43,6.81,20.89,12.56,45.9,17.07,74.34a225.86,225.86,0,0,1,2.8,43.13,233.08,233.08,0,0,1-4.91,41c-11.68,55.09-36.57,96-74,121.61-24.28,16.93-49.07,29.83-73.69,38.36a257.5,257.5,0,0,1-74.24,14.27Q194.17,1080,187.88,1080ZM56.05,973c21.79,59.53,68.78,86.85,143.68,83.53a234.45,234.45,0,0,0,67.63-13c22.61-7.83,45.5-19.77,68.05-35.5l.09-.06c32.35-22.12,54-58.23,64.44-107.34a209.29,209.29,0,0,0,4.41-36.93A203.49,203.49,0,0,0,401.83,825c-4.33-27.26-9.79-51.08-16.22-70.81-6.2-19-14.06-34.58-23.36-46.33l-.15-.19c-8.87-11.7-17.61-17.39-26.72-17.39h-.2c-19.57-.3-40.42,25.91-60.26,75.9-10.21,25.93-13.82,47.11-10.72,62.9,2.8,14.26,11.27,24.31,25.91,30.73l.15.07C316,871.6,341.4,865.1,368.05,840l6.64-6.24,7.63,5c17.43,11.37,20.06,26.19,19.2,36.62-1.2,14.81-14.45,31.59-41.72,52.79-50.53,39.5-101.39,60.49-151.13,62.35-51.16,1.9-87.15-7.36-110.1-28.32l-.1-.09c-22.76-21.27-34.3-46.74-34.3-75.7a105.31,105.31,0,0,1,1.93-19.61q-9.55,25.62-12.83,47.3C49.58,937.41,50.52,957.21,56.05,973Zm54.58-200.27Zm207.08,26.75c-.76,0-1.51,0-2.28-.07l-.5,0a44.8,44.8,0,0,1-29.32-14.3l-6.21-6.7,5.07-7.6c8.46-12.7,18.2-19.14,28.94-19.14,11.16,0,22.28,6.52,34,19.93l7.62,8.72-8.71,7.63C337.57,795.62,328,799.51,317.71,799.51ZM317,776.32c.35,0,.69,0,1,0a10,10,0,0,0-4.58-1.5,3.76,3.76,0,0,0-1.6.43A25.93,25.93,0,0,0,317,776.32ZM286.15,653.38c-3.45,0-7.92-1-12.85-4.6l-.38-.29c-.82-.65-3.88-2.85-14.37-9.1-8.18-4.86-19.24-11.56-32.86-19.91-6.48-3.64-8.79-8.56-9.58-12.06s-.79-9.3,3.9-15.87l32-48,.19-.26c5.55-7.38,14.15-10.13,23.63-7.55l.62.19a146.31,146.31,0,0,1,30.46,14.24l14.53-21.52c5.53-7.38,14.15-10.13,23.62-7.56l.79.25A164.86,164.86,0,0,1,373.8,534.2a160.94,160.94,0,0,1,25.13,17.95l.57.54c7,7,8.58,16.51,4.16,25.35l-.26.51-.31.49L370.94,630l-.23.31c-4.72,6.49-10.14,8.31-13.86,8.7s-9.35-.27-15.25-5.58l-.41-.4c-.18-.18-2-1.91-9.66-6.73-3.7-2.33-8.24-5.11-13.54-8.3L301.6,644.74c-4.13,5.9-9.13,7.82-12.6,8.4A17.34,17.34,0,0,1,286.15,653.38Zm1.4-22.93h0Zm-46.47-28.72c12,7.36,21.88,13.33,29.32,17.74s11.65,7.13,14.12,8.82l25.63-41.94,9.83,5.82c9.86,5.83,17.9,10.71,23.9,14.48,4.84,3.05,7.95,5.22,10.06,6.83l28.43-45a138.65,138.65,0,0,0-20.18-14.21,142.12,142.12,0,0,0-22.88-10.68L313,582.65l-9.71-7.09a125.23,125.23,0,0,0-33.17-17.36ZM351.68,617ZM238.57,605.48Zm-1.65-6.28Z"/></svg>