<svg id="Layer_1" data-name="Layer 1" xmlns="http://www.w3.org/2000/svg" viewBox="0 0 1080 1080"><defs><style>.cls-1{fill:#fff;}.cls-2{opacity:0.5;}</style></defs><path class="cls-1" d="M938.92,203.89c-18.15-15.46-48.11-19.66-67.26-9.84-13.69,7.16-21.82,18.73-26.44,33.18q-48.24,151-96.43,301.95a32.57,32.57,0,0,0-1.47,14.2q7.74,50.88,16.36,101.62c.6,3.57,3.15,6.82,4.79,10.22,3.3-1.84,7.22-3.05,9.79-5.62q36.4-36.37,72.29-73.26c3.2-3.31,5.45-8,6.89-12.5Q905.91,413,954,262C961.26,239.47,957.43,219.66,938.92,203.89ZM773.92,638c-1.51-9.67-2.71-17.26-4-25.52l21.2,7.95Zm33.27-34c-2.93,2.7-8.84,3.5-13.2,3.13-21.29-1.82-31.37-13.48-31-35.24.14-9.54-2.74-19.11-4.2-28.36l81.5,27.12C830,581.14,819,593,807.19,604Zm37.9-48.13-81.93-26.39c29-90,58-180.23,87-270.15L931.76,286Zm93-283.8L852.6,244c3.52-19.48,10.75-38.1,33.43-43a51.31,51.31,0,0,1,49.86,15.77C951.56,233.77,947.12,253.25,938.11,272Z"/><g class="cls-2"><path class="cls-1" d="M850.13,259.29c-29,89.92-58,180.19-87,270.15l81.93,26.39L931.76,286ZM806.48,494.94c-1.21,3.77-2.76,7.45-5.23,14-3.51-4-7-6.19-7.41-8.87-.53-3.28,1.35-7,2.45-10.46q29-90.64,58-181.25a6.41,6.41,0,0,1,.79-2.28c2.82-3.17,5.76-6.25,8.66-9.36.71,4.1,2.86,8.57,1.89,12.22-3.4,12.87-7.86,25.46-11.92,38.17Q830.09,421,806.48,494.94Zm33.6,13.19c-1.15,3.52-5.89,5.88-9,8.78-.53-3.85-2.45-8.12-1.4-11.46q29.87-94.77,60.53-189.3c1.06-3.27,4.32-6,7-8.43.53-.48,3.27,1.51,5.28,2.5a84.54,84.54,0,0,1-1.79,8.65C880.66,382,860.58,445.13,840.08,508.13Z"/></g><g class="cls-2"><path class="cls-1" d="M938.11,272c-28.49-9.34-56.75-18.59-85.51-28,3.52-19.48,10.75-38.1,33.43-43a51.3,51.3,0,0,1,49.86,15.77C951.56,233.77,947.12,253.25,938.11,272Z"/></g><g class="cls-2"><path class="cls-1" d="M840.25,570.61C830,581.14,819,593,807.18,604c-2.93,2.7-8.83,3.5-13.19,3.13-21.3-1.82-31.37-13.48-31-35.24.13-9.53-2.74-19.11-4.2-28.36Z"/></g><g class="cls-2"><path class="cls-1" d="M791.12,620.43,773.92,638c-1.51-9.67-2.71-17.26-4-25.52Z"/></g><path class="cls-1" d="M902.57,310.22a84.32,84.32,0,0,1-1.79,8.64c-20.11,63.13-40.19,126.27-60.7,189.27-1.15,3.53-5.89,5.88-9,8.77-.53-3.84-2.45-8.11-1.4-11.45q29.87-94.77,60.53-189.3c1.06-3.27,4.33-6,7-8.43C897.82,307.24,900.56,309.23,902.57,310.22Z"/><path class="cls-1" d="M801.26,509c-3.52-4-7-6.19-7.43-8.87-.52-3.28,1.36-7,2.46-10.46q29-90.64,58-181.25a6.34,6.34,0,0,1,.79-2.28c2.82-3.17,5.76-6.25,8.66-9.36.72,4.1,2.86,8.57,1.89,12.22-3.4,12.87-7.86,25.46-11.92,38.17Q830.09,421,806.48,494.94C805.27,498.71,803.72,502.38,801.26,509Z"/><rect class="cls-1" x="500.43" y="663" width="258.31" height="50"/><path class="cls-1" d="M454.14,713h-67V663h67Zm-134,0h-67V663h67Zm-134,0h-67V663h67Z"/><path class="cls-1" d="M519.37,519.37c7.47,20,21.45,33.57,41.26,41.26H519.37Z"/><path class="cls-1" d="M519.37,560.63c19.77-7.74,33.71-21.31,41.26-41.26v41.26Z"/></svg>