<svg id="Layer_1" data-name="Layer 1" xmlns="http://www.w3.org/2000/svg" viewBox="0 0 1080 1080"><defs><style>.cls-1{fill:#fff;}</style></defs><path class="cls-1" d="M983.45,487c1.73,4.35,3.34,8.74,5.21,13,2.7,6.17,4.58,13,8.64,18.19,4.91,6.23,9.54,4.59,10.83-3.17.72-4.37.33-8.94.2-13.42-.32-10.79-1-21.57-1.06-32.36,0-3.35,1.4-6.71,2.16-10.06l2.85-.78c1.79,3.22,3.25,6.71,5.48,9.61,2.53,3.28,5.32,7.24,8.85,8.49,1.59.56,6.93-4.31,7.71-7.43,6.46-25.69,5.1-51.1-5-75.73-1.51-3.66-4.61-6.67-7-10l-2.76.24c-1.27,7.45-2.54,14.91-3.85,22.56-15.42-5.79-24.43-69.51-12.22-87.51,3.26,3.17,6.76,5.8,9.31,9.17,18.91,25,29.78,53.89,40.45,82.95,20.49,55.76,5.88,105.78-25.67,152.36-12.56,18.55-27.76,35.4-42.56,52.33-10.93,12.51-17.54,13.14-32.61,6.24-6.82-3.12-13.56-6.42-20.44-9.39s-13.62-3.15-19.36,2.22c-13.31,12.47-24.86,26.38-29,44.58-1.1,4.8,0,11.91,3,15.41,4.68,5.38,10.62.62,15.16-2.64,4.11-2.94,7.62-6.74,11.35-10.21,2.19-2,4.09-4.47,6.48-6.24,5.22-3.84,11.4-10.31,17.21-4.92,3.18,3,3.43,12.17,1.39,17-6.22,14.86-12.84,29.89-21.78,43.19-19.4,28.9-40.49,56.67-60.57,85.12a346.6,346.6,0,0,0-20.24,31.9c-7,12.67-13.94,26-3.71,40.3,11,15.44,26.87,19.27,44.61,17.21,21.07-2.45,39.84-11.36,57-23.21,61.81-42.8,104.6-99.84,127.09-171.83,4.53-14.51,5.79-27.2-7.87-39-11.12-9.61-6.52-36.8,5.7-45.37,7.09-5,15.33-3.11,17.79,6,2.68,9.92,5,21,3.14,30.85-4.87,26.43-10.16,53.06-18.65,78.48-16,47.84-38.55,92.51-73.24,130C960.86,880,931,904.28,893,916.62c-16,5.19-32.37,7.51-48.56,1.72C820.17,909.65,811,889,807.7,866c-4.75-32.82,3.86-63,22.12-90.56,11.37-17.18,26.35-32.72,29.95-53.86,2.9-17,3.78-34.49,5-51.79,2.22-30.34,9-59.36,25.46-85.28A88.11,88.11,0,0,1,908.82,564c9.46-7.74,20.31-6.45,29.39,1.61,1.35,1.2,2.63,2.46,4,3.67,13.75,12.39,26.43,9.71,31.74-8.26,3.15-10.65,3.11-22.37,3.59-33.65.4-9.56-.79-19.18-.74-28.78,0-3.61,1.53-7.22,2.36-10.83Z"/><path class="cls-1" d="M208.92,457.89c3.69,10.06,7.24,18.3,9.7,26.85,2.58,9,.74,17.88-6.24,24.08-18.13,16.1-36.36,32.17-55.5,47-10,7.79-16.51,4.79-21.66-6.9-9-20.53-7.91-29.55,8.63-42.66C164.51,489.9,186.13,474.74,208.92,457.89Z"/><path class="cls-1" d="M173.17,603.57c0,3.69.42,5.5-.07,7-5.12,16.08-27.69,34-44.46,35.39-12.39,1.06-16.87-2.14-19.26-14.37-1.53-7.81-5.13-11.45-13.72-9.9-4.49.8-9.36-.58-14.06-1,.82-3.27.76-7.2,2.63-9.66,3.88-5.08,9-9.45,16.12-6.52a42.28,42.28,0,0,1,10.39,6.74c2.52,2.07,4.32,5,6.57,7.38,11.57,12.46,22.71,12.91,35,1.37,3.27-3.08,6.1-6.67,9.57-9.49C164.91,608.09,168.56,606.37,173.17,603.57Z"/><path class="cls-1" d="M770.21,319.7c-4-11.3-2.69-21.13,1.51-30.58,2.47-5.57,7.83-7.36,12.74-4.15s10.36,7.33,12.24,12.31a121.64,121.64,0,0,1,5.44,68.89c-.61,2.9-2.54,5.53-3.86,8.28l-2.24-.37c-.51-3.35-1.44-6.7-1.45-10.06-.07-12.29.18-24.59.28-36.88,0-1.8.37-3.86-.36-5.35-2.77-5.63-5.92-11.08-8.93-16.6-4.15,3.76-8.31,7.51-12.44,11.28C772.49,317.07,771.94,317.79,770.21,319.7Z"/><path class="cls-1" d="M914.44,823.36c1.48-19.15,56.4-83.87,74-87.22C969.75,769.51,945.37,798.05,914.44,823.36Z"/><path class="cls-1" d="M973.08,274.5c-1.1-11.08-2.36-22.14-3.26-33.23a81.48,81.48,0,0,0-17-43.76,55.88,55.88,0,0,1-7.87-14c-.78-2.07.62-6.07,2.39-7.65,1.33-1.17,5.73-.82,7.25.54A50.36,50.36,0,0,1,965,188.58c10.18,17.9,14.36,37.38,13.41,57.92-.43,9.33-1.21,18.64-1.84,28Z"/><path class="cls-1" d="M828.58,660.62c1.6-12.12,3.11-22.39,4.27-32.7,1.31-11.68.16-22.31-9.91-30.88-2.82-2.39-3.83-9.35-2.62-13.26,1-3.11,7.06-7.07,10-6.47,3.57.71,8,5.4,9,9.18a104.08,104.08,0,0,1-3.73,65.82,28.62,28.62,0,0,1-3.08,5.43C832.11,658.4,831.21,658.75,828.58,660.62Z"/><path class="cls-1" d="M702.11,787.61c-1-6.62-.73-13.77-3.27-19.73-3-7.08-8.43-13.15-12.83-19.64-1.53-2.25-4.92-5.81-4.44-6.45,3.53-4.58,7.43-9.16,12.13-12.39,1.38-.95,7.56,1.75,8.39,4,2.47,6.59,4.6,13.77,4.61,20.73,0,11.16-1.75,22.33-2.76,33.5Z"/><path class="cls-1" d="M773.38,950.76c.85,5.88,1.41,11.82,2.64,17.61,1.52,7.24,5.45,10.74,13.59,8.72,3.92-1,8.36.18,12.57.36-2,4.42-3.09,9.7-6.23,13.07-7.09,7.64-18.32,6.58-22.8-2.13C766.85,976.15,767.91,963.32,773.38,950.76Z"/><path class="cls-1" d="M140.61,860.93c3.72,7.21,6.18,12.27,8.89,17.18,4.4,7.95,9.18,15.14,19.18,17.47,6,1.41,8.72,6.66,5.85,12.71s-7.79,4.23-12.22,1.71C149.83,902.9,138.34,878.7,140.61,860.93Z"/><path class="cls-1" d="M696.8,813c-.95,11.81-5.42,21.89-14.71,29.62C682.14,830.39,687.75,820.87,696.8,813Z"/><path class="cls-1" d="M937.7,339.13C935.1,303,924,268.67,910.05,235.29c-24.11-57.6-58.84-108.61-97.3-157.27-10-12.7-21.26-24.47-32.3-36.34-2.91-3.12-7.17-5-10.8-7.44l-2.19,2c.95,5.21,1.46,10.54,2.91,15.61,17.41,61.09,34,122.44,52.76,183.11q25.65,82.85,55.71,164.31c6.9,18.57,5.83,33.3-4.39,49-23.88,36.6-56,64.8-91.05,90.07a29.21,29.21,0,0,1-5.51,3c-6.15,2.68-10.32,2-11.43-5.9a177.9,177.9,0,0,0-4.57-22.91c-20.51-73.3-40.88-146.65-62.16-219.73-3.38-11.61-2.63-19.39,6.63-27.5,17.1-15,30.77-33.12,32.84-56.27,1.85-20.73,2.34-42.1-.54-62.64-6.47-46.12-27.37-87.26-49.19-127.77-1.24-2.31-3.29-4.19-5.78-7.29-4.26,28.08,4.34,106.16,12.79,119.3.74-4.4.69-8.85,2.32-12.57s5-6.72,7.54-10c3,2.6,7.64,4.66,8.68,7.88,3.1,9.62,6.24,19.62,6.72,29.6.93,19.59-2.6,38.45-17.56,53-13.65,13.27-29.33,11.87-39.38-4.06-5.4-8.55-9.64-18-13.42-27.4-16.89-42-33.2-84.22-50.28-126.13-4-9.73-10.15-18.56-15.31-27.81a8.77,8.77,0,0,0-1.95,5.7c-1.65,28.45,5.42,55.12,15.18,81.59,8.25,22.4,16.47,45.14,21.19,68.43s3.24,47.4-10.53,68.66c-11,17-30.38,25.29-50.82,20.95-18.39-3.91-26.83-18-29.64-34.71-3.17-18.85-3.65-38.14-5.73-57.19-.9-8.28-2-16.72-4.57-24.59-2.31-7.15-7.32-7.89-12.11-2.15a70.91,70.91,0,0,0-9.75,16c-12.15,26.78-16.52,55.6-21.49,84.25-3.6,20.73-7.75,41.35-18.76,59.69-12.18,20.3-28.71,21.61-42.67,2.37a132.09,132.09,0,0,1-18.36-34.81c-14.3-42.69-28.47-85.34-50.73-124.77-15.51-27.5-31.3-54.81-53.84-77.38-4.17-4.17-9.33-7.36-14-11L274,56c2.67,24.36,5.82,48.68,7.86,73.09,2,24.21,4.24,48.53,3.95,72.77s-3.61,48.17-5.71,73.6c10.3-18.34,16.92-36.7,17.9-56.33,1.17-23.34.48-46.77.85-70.16.12-7.51,1.05-15,1.61-22.52l5.38-3.11c1.61,3.25,3,6.59,4.84,9.73,15.22,26.83,30.63,53.57,45.71,80.48,5.76,10.27,5.1,20.89-1,30.86-12.46,20.49-24.51,41.28-38,61.11-21.25,31.33-27.74,65.43-20.93,102.08,5.86,31.51,13.19,62.75,19.35,94.2,10.62,54.31,5.55,107.45-18.06,157.37C274,709.43,237,749.9,192.68,783c-21.77,16.25-46.33,28.75-69.54,43.09-3.25,2-6,4.89-8.92,7.37.46,1,.91,1.92,1.36,2.88,7.8-1.36,15.82-2,23.34-4.21,23-6.89,45.79-14.25,68.55-21.8,7.89-2.62,10.42.11,10.31,7.7-.31,21,.26,42.09-.83,63.08-1.37,26.5,3.83,51,16.44,74.44,19.81,36.86,48.24,62.29,90.41,68.4,33.77,4.89,67.84,8.13,101.89,10.53a358.94,358.94,0,0,0,61.16-.82c26.79-2.74,48.47-18.4,70.3-32.75,26.83-17.63,45.23-41.81,54.81-72.5,11.4-36.51,12.62-74.34,14.29-112.12,1.18-26.69,2.1-53.4,4-80C631.62,718.07,637,701,648.16,686c8.42-11.31,16.19-23.12,24.36-34.63,16.65-23.46,25.08-49.11,24.64-78.31-.6-39.1-5-77.69-9.8-116.42-2.24-18,1.89-36.88,3.76-55.29.34-3.34,3.68-6.37,5.64-9.55,2.58,2.6,5.68,4.85,7.62,7.86A59.19,59.19,0,0,1,710,411.89c23.85,67.24,41.23,135.82,45.3,207.47A900.18,900.18,0,0,1,744.15,823C732.72,889.87,701,945.23,650.31,989.78c-37.7,33.13-80.76,56-130.79,64.1-14.74,2.37-29.71,3.29-44.57,4.87a256.06,256.06,0,0,0,118.78,5.42c38.25-7.16,71.51-23.59,99-51.38,29.71-30,47.46-66.83,59.7-106.52,18.19-59,24.4-119.8,25.24-181.18.7-51.07.16-102.15-.14-153.23,0-6.49,1.8-10.23,7.69-13.43,20.84-11.32,41.43-23.09,61.92-35C918.12,482.08,943.37,417.83,937.7,339.13ZM618.17,295.2c9-22,17.28-44.4,26.44-68.15,2.23,2.24,5.38,4.8,7.79,7.93,18.2,23.69,26.9,50.84,26.66,80.42-.19,23-1.83,46.08-3.85,69-.46,5.19-5.15,10-7.89,15-4.73-3.16-11.22-5.24-13.9-9.64C641,369.37,629.19,348.48,618,327.33,612.52,317,613.68,306.16,618.17,295.2ZM361.48,961.85c-2.71,1.16-5.51,2.23-8.38,3.17q-2.88,1-5.86,1.75-4.33,1.15-8.62,1.9a93,93,0,0,1-16.89,1.41,86,86,0,0,1-45.86-13.53c-1.14-.73-2.26-1.48-3.36-2.26a91.18,91.18,0,0,1-9.52-7.71,104.33,104.33,0,0,1-24.6-35.52,118.77,118.77,0,0,1-5.87-17A105.93,105.93,0,0,1,230,881.43c-.38-2.8-.63-5.59-.77-8.36s-.16-5.55-.07-8.3c.05-1.38.13-2.76.24-4.13a97,97,0,0,1,5.11-24.23c.46-1.31.95-2.63,1.47-3.94a108.57,108.57,0,0,1,6.81-14.05c1-1.72,2-3.44,3.12-5.14a128.67,128.67,0,0,1,8-11,151.71,151.71,0,0,1,16.79-17.51q2.08-1.86,4.21-3.65,4.24-3.59,8.65-6.91,2.21-1.67,4.44-3.27,4.47-3.21,9.08-6.18t9.35-5.75q3.9-2.28,7.88-4.42t8.22-4.3c7.65-3.84,15.47-7.4,23.43-10.75q6-2.54,12-5.14c4-1.73,8-3.5,11.92-5.28q11.89-5.36,23.67-10.93a134.88,134.88,0,0,0,17.15-9.62c1.06-.7,2.1-1.41,3.12-2.14,2.22-1.57,4.35-3.21,6.41-4.89,1.75-1.44,3.45-2.9,5.09-4.42.89-.82,1.77-1.66,2.62-2.51l.06,0q2.55-2.52,4.9-5.18a107.37,107.37,0,0,0,18.86-30.45c.94-2.26,1.81-4.58,2.61-6.93.41-1.18.8-2.37,1.17-3.58a142.9,142.9,0,0,0,5-22.88q2.16-15.93,3.23-31.72c0-.26,0-.52.05-.79a372.23,372.23,0,0,0-3.26-81.71q-1-6.22-2.18-12.41a315.06,315.06,0,0,0-23.73-73.05Q428.85,413.39,423,401q-17.46-37.25-35.07-74.4c-.18-.39-.38-.77-.59-1.14-1.49-2.6-3.66-4.94-5.68-7.76a21.55,21.55,0,0,0-1.52,6.83c-.08.71-.14,1.46-.2,2.25-.09,1.19-.16,2.47-.22,3.84-.16,4.1-.16,9,0,14.5,0,.62,0,1.24.05,1.87.16,5.66.46,11.95.88,18.73.09,1.5.19,3,.3,4.58s.21,3.13.33,4.72c.29,4,.61,8.11,1,12.33.14,1.69.29,3.4.45,5.12.07.86.15,1.72.23,2.59.16,1.74.32,3.49.49,5.25.75,7.94,1.59,16.14,2.52,24.46q.3,2.78.63,5.57t.65,5.59c.43,3.73.89,7.48,1.35,11.23l.36,2.81c.22,1.76.44,3.53.67,5.29l.78,5.92q.36,2.79.75,5.57c.23,1.74.47,3.47.71,5.2.16,1.15.32,2.29.49,3.43.22,1.61.45,3.2.68,4.79l.45,3.06c.13.9.26,1.8.4,2.7q.42,2.86.86,5.7.56,3.6,1.11,7.11.85,5.4,1.73,10.6.79,4.77,1.61,9.32c.05.29.1.57.16.85q.35,1.95.69,3.84c.17.92.34,1.82.51,2.72q.63,3.42,1.28,6.67c.28,1.44.57,2.86.85,4.25q.86,4.17,1.71,8c.29,1.28.57,2.52.85,3.74.57,2.42,1.13,4.72,1.69,6.88.42,1.61.84,3.15,1.25,4.6.14.49.28,1,.41,1.43.28.93.55,1.83.82,2.68.41,1.28.81,2.47,1.21,3.56.31.84.61,1.62.91,2.34.23.54.45,1.06.67,1.53a15.64,15.64,0,0,0,2.26,3.74c-.28-3.82-.53-7.65-.78-11.48q-.19-2.87-.37-5.74c-.37-5.74-.76-11.48-1.24-17.2q-.24-2.87-.51-5.73c-.19-1.91-.38-3.81-.6-5.71-1.76-15.64-3.7-31.26-5.65-46.88q-1.45-11.72-2.91-23.42t-2.83-23.44c-.08-.67-.14-1.33-.19-2s-.08-1.34-.11-2,0-1.35,0-2,0-1.35,0-2c.1-2.71.36-5.42.72-8.08a9.21,9.21,0,0,1,4.31-6.08.9.9,0,0,1,.51-.1,3.64,3.64,0,0,1,1,.24l.4.17a7.46,7.46,0,0,1,.69.35l.41.25.3.19a12.07,12.07,0,0,1,1.25.95l.37.34a6.55,6.55,0,0,1,.72.81l.34.47c3.23,4.43,6.46,9,8.62,14a381.43,381.43,0,0,1,14.72,39.56q1,3.34,2,6.71a283.32,283.32,0,0,1,10.14,55.09q.28,3.52.47,7.07a172.12,172.12,0,0,1-1,29.82c-.34,2.76-.75,5.49-1.22,8.21a161.54,161.54,0,0,1-3.65,16c-.87,3.08-1.85,6.13-2.9,9.15-.74,2.11-1.51,4.21-2.34,6.29q-1.5,3.78-3.2,7.5-2.54,5.58-5.51,11c-.9,1.65-1.85,3.28-2.81,4.91a186.8,186.8,0,0,1-21.54,29.24c-17.43,19.49-37.17,36.93-56.47,54.74q-4.14,3.81-8.24,7.66a31.57,31.57,0,0,1-7.43,4.92l-1.64.8c-1.1.52-2.2,1-3.28,1.52a8.23,8.23,0,0,1-4.37.93,4.79,4.79,0,0,1-.7-.16,3.15,3.15,0,0,1-1.88-1.59,5.86,5.86,0,0,1-.53-3,12,12,0,0,1,.27-1.94c.16-.72.33-1.45.51-2.17.54-2.18,1.16-4.35,1.89-6.48.49-1.42,1-2.82,1.6-4.2s1.23-2.71,1.92-4a201.49,201.49,0,0,0,17.72-46c.61-2.42,1.16-4.85,1.68-7.28q1.53-7.3,2.51-14.69.5-3.71.84-7.41a207.49,207.49,0,0,0,.91-22.48c0-2.51-.12-5-.24-7.56s-.29-5.06-.5-7.6c-.11-1.26-.23-2.53-.36-3.8-1.46-14.56-3.76-29-6.36-43.48-.37-2.06-.74-4.12-1.13-6.18q-1.14-6.2-2.33-12.37c-1.57-8.25-3.16-16.49-4.68-24.74q-1.14-6.19-2.2-12.38-1.95-11.4-4-22.79t-3.93-22.78q-1-5.7-1.9-11.4c-1.87-11.41-3.63-22.83-5.17-34.28-.78-5.79.47-12.36,2.6-18.35.35-1,.73-2,1.13-3s.81-1.89,1.24-2.8A234.79,234.79,0,0,1,336.54,348c5-7.56,10.43-14.92,16-22.21,9.77-12.76,20.15-25.31,30.31-38.36h0c6.89,10.24,13.14,20,19.54,29.29q2.7,3.93,5.44,7.77c.83,1.16,1.66,2.32,2.51,3.47a80.24,80.24,0,0,0,7.57,8.88c1.38,1.39,2.8,2.73,4.28,4,.91.79,1.85,1.54,2.8,2.28q.86.67,1.74,1.32a42,42,0,0,0,5,3.11c.71.36,1.41.71,2.12,1a31.18,31.18,0,0,0,4.54,1.6c.78.2,1.55.37,2.31.5q.81.15,1.62.24a23.21,23.21,0,0,0,2.75.13,21.17,21.17,0,0,0,9-2.05c4.85-2.3,9.06-6.56,12.16-12.79a129.92,129.92,0,0,0,7.45-18.78q1.75-5.57,3.16-11.24l.69-2.84c.44-1.89.87-3.79,1.27-5.68s.79-3.79,1.16-5.68q1.08-5.57,2.1-11.15c2.7-14.88,5.06-29.82,7.42-44.77q1.76-11.22,3.56-22.42.9-5.59,1.85-11.2a50.85,50.85,0,0,1,2.53-8.74c.42-1.16.84-2.31,1.24-3.47.2-.57.39-1.15.58-1.73l3.1-.44h0c.6.94,1.3,1.85,2,2.76a33.4,33.4,0,0,1,3.15,4.51,9.72,9.72,0,0,1,1,2.58c2.71,13.13,5.41,26.37,6.54,39.7.63,7.35,1.31,14.65,2.56,21.79.07.35.13.7.2,1.05.3,1.65.64,3.29,1,4.92.29,1.25.6,2.51.94,3.75.27,1,.57,2,.88,3A73.5,73.5,0,0,0,527,286.94a62,62,0,0,0,13.81,16.85,55.19,55.19,0,0,0,5.57,4.12c1.47,1,3,1.82,4.57,2.63,1.06.55,2.14,1.07,3.23,1.56a64,64,0,0,0,12.31,4c2.21.49,4.47.88,6.8,1.18,10.7,1.33,16.78,3.43,19.89,8.67a15.36,15.36,0,0,1,.88,1.77,18.13,18.13,0,0,1,1,3.07q.13.56.24,1.14c.15.79.26,1.62.36,2.49q.06.66.12,1.35c.13,1.84.17,3.87.13,6.11-.28,13.86-1,27.73-1.9,41.58q-.27,4.16-.59,8.31-.61,8.31-1.32,16.6a64,64,0,0,1-2.77,14c-.58,1.83-1.22,3.62-2,5.37-.42,1-.86,2-1.33,3a76,76,0,0,1-18.19,23.49q-5.55,4.95-11,10c-11,10-21.91,20.11-33,30A68.45,68.45,0,0,0,512,507.9a64.88,64.88,0,0,0-3.48,6c-4.7,9.29-7.15,19.64-7.9,31.05q-1,15.49-2.24,31t-2.54,30.93q-1.32,15.46-2.67,30.93t-2.58,30.93q-.28,3.62-.5,7.2c-.27,4.78-.39,9.54-.29,14.27a.81.81,0,0,0,0,.16c.28,11.84,2,23.54,6.76,35.09a21.79,21.79,0,0,1,1.1,3.5,29.89,29.89,0,0,1,.77,6.66,24.48,24.48,0,0,1-.26,3.78l-.06.34a15.59,15.59,0,0,1-.44,1.93l-.21.64a10,10,0,0,1-1.27,2.56c-.59.81-1.18,1.61-1.78,2.41q-2.69,3.62-5.55,7c-.56.66-1.12,1.31-1.69,2q-1.49,1.66-3,3.26c-8.06,8.37-17.23,15-28.16,18.16-1.46.43-2.95.79-4.47,1.09a53.21,53.21,0,0,1-9.53,1,59.91,59.91,0,0,1-7.7-.39,44.17,44.17,0,0,1-7.46-1.55c-.89-.26-1.77-.54-2.65-.84l-.89-.3c-1-.36-2-.73-3-1.12s-2.3-.93-3.45-1.41l-3.42-1.48c-1.71-.75-3.41-1.5-5.11-2.23l-1.7-.72c-4.61-1.92-9.1-4.16-13.58-6.41-3.79-1.91-7.58-3.82-11.44-5.55a17.26,17.26,0,0,0-3.53-1.14c-.39-.08-.78-.14-1.17-.19a11.32,11.32,0,0,0-1.16-.09,10.65,10.65,0,0,0-1.13,0,10.36,10.36,0,0,0-1.12.11,10.48,10.48,0,0,0-3.1.91,8.68,8.68,0,0,0-.95.51,9.79,9.79,0,0,0-3.69,4.08,29.47,29.47,0,0,0-1.19,2.8,25.88,25.88,0,0,0-1.68,10.72,11.14,11.14,0,0,0,.37,2,7.31,7.31,0,0,0,.74,1.68,115.41,115.41,0,0,0,13.28,17.11c1,1.08,2,2.15,3,3.21,2,2.12,4,4.21,6.05,6.29,1.56,1.61,3.2,3.13,4.89,4.62,3.38,3,6.94,5.75,10.43,8.61,1.75,1.44,3.47,2.89,5.14,4.4a82.06,82.06,0,0,1,6.83,6.89q2.08,2.37,3.9,4.83c.61.81,1.2,1.64,1.76,2.47A66.08,66.08,0,0,1,425,847.82a60.1,60.1,0,0,1,3.62,10.77q.64,2.73,1,5.52a60.14,60.14,0,0,1-.63,19.77,66,66,0,0,1-2.29,8.55c-.32,1-.67,1.9-1,2.85a79.47,79.47,0,0,1-7.22,14.11c-11.37,17.77-24.76,33.27-41.63,44.23-.81.52-1.62,1-2.44,1.53q-3.69,2.26-7.59,4.22C365.06,960.24,363.28,961.07,361.48,961.85ZM589,510.94c-8.06,18.58-20.31,33.94-37.49,44.86-4.9,3.12-10.85,4.58-17.66,7.34-4.42-2.76-10.34-4.56-12.52-8.46-1.54-2.77.81-9.3,3.43-12.53a149.45,149.45,0,0,1,53.44-41.64c3.31-1.55,7.82-.52,11.77-.68C589.7,503.56,590.4,507.7,589,510.94Zm73.63,97.76c-7.75,9.56-14.87,19.76-23.47,28.5-22.61,23-29.6,51.16-30.21,82.21-.62,31.8-.94,63.7-3.71,95.36-7.92,90.77-53.22,155.54-137.43,192-28.2,12.2-56.95,22.49-88.42,21.32-2.92-.1-5.85,0-11.54,0,4.26-4.81,6.65-8,9.48-10.65,18.8-17.81,37.1-36,48.39-59.87,13.55-28.68,20.68-58.63,19.2-90.5-1.83-39.24-1.6-40.11,30.28-55.38,21.43-10.27,36.78-27.62,50-46.92,10.07-14.65,20.89-28.35,36.34-38.17,12.14-7.72,14.11-30.39,4.93-41.4-4.59-5.52-10.52-6.39-16.18-3.21-8.82,5-17.07,11-25.53,16.58-5.86,3.88-12.33,11.36-18.69,5.9-3-2.6-1.88-13.41.82-18.75,10-19.74,20.29-39.49,32.54-57.86,15.63-23.46,33.55-45.38,49.94-68.35,11.84-16.58,16.32-35.65,17.23-55.91,1.45-32.07,3.44-64.13,5.51-96.17.31-4.8,2.28-9.49,3.48-14.23l2.7-.65c2.92,3.51,6.37,6.71,8.69,10.58,19.53,32.68,32.87,68,43,104.51,4.76,17.19,7,35.19,9.1,53C681.2,578.85,674,594.67,662.63,608.7Zm246.6-251.31c-1.65,11.24-4,22.4-6.65,33.45a45.81,45.81,0,0,1-6.07,13.94c-1.72,2.66-5.32,4.11-8.08,6.1-1.67-2.67-4.43-5.18-4.84-8C871.07,317.77,836,239,814.83,156.35c-2.54-9.86-5.13-19.72-7.39-29.65-.76-3.32-.55-6.85-.78-10.29l4.62-3.12c4.58,5.84,9.14,11.69,13.74,17.52,27.23,34.51,52.26,70.4,69.48,111.16A212.31,212.31,0,0,1,909.23,357.39Z"/><path class="cls-1" d="M294.36,520.48c-8.52,12.2-17.28,24.25-25.54,36.63-26,39-56.24,74.2-94.14,102.19-27.54,20.34-56.82,36.72-92,40.2-37.6,3.72-61.41-20.5-54.8-56.67a21.87,21.87,0,0,1,.91-3.47c8.82-23.87,17.31-47.86,26.58-71.55C68.5,534.4,80.22,500.59,77.92,464.13c-.76-12.18-5.45-24.28-9.64-35.95-1.07-3-7.09-5.7-10.81-5.67-2,0-5,5.91-5.72,9.53-2.16,10.38-6.23,19.48-14.82,25.94-9.81,7.38-17.54,4.3-20.34-7.8-6.67-28.74,24.3-59.78,52.46-51.88,13.21,3.71,25.79,9.64,38.68,14.49,25.68,9.65,42.76,3.21,55.13-21.12,3.53-6.92,6.33-14.22,9.25-21.44,4.37-10.83,8.15-21.92,12.92-32.57,3.72-8.33,10.76-11.79,20-10s18.57,3.64,29.78,5.84c-13-10.82-24.42-20.37-35.86-30-8.55-7.17-12-16.33-10.06-27.31,7.5-42.07,20.91-81.78,46.07-117,13.62-19.06,9.73-47.12-8.2-63.94-2.25,4.47-4.16,9.13-6.81,13.34-11.43,18.15-27.47,31.61-45.06,43.4a77,77,0,0,1-37.62,13.23C103.83,168,84.9,194.06,91.49,227c3.37,16.86,12.55,30.33,25.1,41.65,7.35,6.63,15.2,12.72,22.55,19.37s13.7,14.63,10.38,25.15c-4.57,14.5-9.07,29.34-16.24,42.62-11.62,21.54-27.36,24.93-49,13.76-9.27-4.77-18.78-9.62-28.75-12.37-23-6.37-39.91,2.92-46.57,25.82A152,152,0,0,0,3.53,417.5c-1.66,32.22,4.28,63.29,16.7,93.09,5.6,13.41,5.22,26.61.2,40.25-5.89,16-11.93,32.1-15.89,48.64C-4.92,639-.32,676.39,25.2,709.52,43,732.59,66.14,746.05,95.46,740.14c19.08-3.85,38.88-10.12,55.25-20.29,64.87-40.28,113.76-94.4,136.76-169,3-9.65,6.45-19.15,9.7-28.72ZM143.14,262.56A126.38,126.38,0,0,1,129,253.08c-12.05-9.4-13.23-15.68-2.17-26.34,6.78-6.54,15.91-11.42,24.85-14.74,8-3,14.69,3,16.63,11.47-4.28,12-8.23,24.21-13,36C153.06,265.07,147.92,265.33,143.14,262.56Z"/><path class="cls-1" d="M411.72,120.25c-5.25,12.63-10.91,25.09-15.68,36l82.41-89.87c-8.37-7.09-16.9-15-26.2-22S433.35,30.54,423,25.48c-11.3-5.49-19.53-1.36-21,10.94a147.91,147.91,0,0,0,.81,38.12c.87,5.94,7.3,10.91,10.51,16.71,2,3.62,4.07,8.1,3.67,11.94C416.38,109,414,114.75,411.72,120.25Zm30.85-69.64L453.9,64.4c-2.34,1.67-5.57,5.24-6.86,4.64-4.22-2-7.72-5.44-12.9-9.4Z"/><path class="cls-1" d="M363,876c.05,19.39-15.35,32.07-28.47,24.93a23.7,23.7,0,0,1-9.9-10.89c-4.3-10.43-3.11-21.25,1.8-31.35,4.09-8.42,12-11.07,20.38-6.84C357.43,857.23,362.08,866.55,363,876Z"/><path class="cls-1" d="M499.17,350.34c2.83,10,5,18.69,7.74,27.17,3.57,11.13,9.76,18.93,23.13,18.4,3.21-.13,8.94,2.6,9.28,4.7.52,3.26-1.61,8.83-4.33,10.36-6,3.39-13,6.19-19.88,6.83-9.57.9-15.14-4.46-15.72-15.53C498.53,385.62,499.17,368.9,499.17,350.34Z"/><path class="cls-1" d="M479.09,901.13c-1.2-16.72,5-27.21,17.36-31.77,10-3.71,16,.15,18.2,10.48,1,4.82,3.49,12.33,6.56,13,4.44,1,10.92-2,14.89-5.28,5.92-4.89,10.36-11.54,15.51-17.38,2.69-3,5.55-5.94,8.33-8.9l2.62,1c-.76,4.37-.62,9.17-2.44,13-6.65,14.11-16.81,25.32-29.86,34-6.69,4.45-11.73,2.91-16.14-3.13-3.71-5.09-7.38-10.2-11.11-15.27-5.6-7.58-8.61-7.75-14.7-.79C485.58,893.32,483,896.54,479.09,901.13Z"/></svg>