<svg id="Layer_1" data-name="Layer 1" xmlns="http://www.w3.org/2000/svg" viewBox="0 0 1080 1080"><defs><style>.cls-1{fill:#fff;}</style></defs><path class="cls-1" d="M14.81,783.38a14.75,14.75,0,0,1-10.23-4.24A13.78,13.78,0,0,1,0,768.56a17.43,17.43,0,0,1,1.41-6.35l170-455a26.43,26.43,0,0,1,8.11-12.35c4-3.53,9.53-5.29,16.58-5.29H273q10.59,0,16.23,5.29a34.18,34.18,0,0,1,8.46,12.35l170,455a33.65,33.65,0,0,1,.7,6.35,14.36,14.36,0,0,1-4.23,10.58,13.58,13.58,0,0,1-9.88,4.24H392.93q-9.89,0-14.46-4.59a23.34,23.34,0,0,1-6-8.82l-33.16-86.06H129.8L96.65,770a23.69,23.69,0,0,1-6,8.82q-4.61,4.59-14.46,4.59Zm139.68-180.6H314.62l-80.41-218Z"/><path class="cls-1" d="M632.07,790.43q-36.69,0-66.32-14.46t-46.91-38.8a92.13,92.13,0,0,1-17.28-54.67q0-49.37,39.86-78.66t105.46-39.15l96.64-14.11V535.77q0-29.62-14.81-45.86t-50.79-16.22q-25.39,0-41.27,10.23A62.89,62.89,0,0,0,613,511.08q-5.65,9.17-16.22,9.17H541.06q-7.77,0-11.64-4.23c-2.59-2.83-3.87-6.58-3.87-11.29q.69-11.28,9.16-27.51t26.81-31.4q18.33-15.15,47.27-25.74t69.83-10.59q44.45,0,75.13,10.94t49,29.27a111.24,111.24,0,0,1,26.81,43,159.92,159.92,0,0,1,8.46,52.2V766.45a16.85,16.85,0,0,1-16.93,16.93H764q-7.77,0-12.34-4.94a16.93,16.93,0,0,1-4.59-12V738.93q-9.18,13.41-24.69,25.05t-37.74,19Q662.39,790.43,632.07,790.43Zm24-67q24.69,0,44.8-10.58T732.59,680Q744.23,657.8,744.23,624V609.13l-70.54,11.29q-41.64,6.35-62.08,20.46t-20.46,34.56q0,15.52,9.52,26.46A56.9,56.9,0,0,0,625,718.12,91.48,91.48,0,0,0,656.05,723.41Z"/><polygon class="cls-1" points="1057.39 370.24 1080 383.37 1041.68 289.57 1003.36 383.37 1025.97 370.23 1025.97 708.2 1003.36 695.06 1041.68 788.86 1080 695.06 1057.39 708.19 1057.39 370.24"/></svg>