<svg id="Layer_1" data-name="Layer 1" xmlns="http://www.w3.org/2000/svg" viewBox="0 0 1080 1080"><defs><style>.cls-1{fill:#fff;}</style></defs><path class="cls-1" d="M652.06,186.24H428a63.31,63.31,0,0,0-63.33,63.28v0L404.13,289v-5.28H675.92V560.86l39.41,39.41V249.52A63.26,63.26,0,0,0,652.06,186.24Zm-77.95,57.32H477.23a7.19,7.19,0,1,1,0-14.38h96.88a7.19,7.19,0,1,1,0,14.38Zm26.67,2a9.17,9.17,0,1,1,9.2-9.15A9.18,9.18,0,0,1,600.78,245.54ZM404.13,796.25V528.67l-39.46-39.46V830.48A63.31,63.31,0,0,0,428,893.76H652.06a63.24,63.24,0,0,0,62.64-54.47l-43-43ZM540,866.79a29,29,0,1,1,29.05-29A29,29,0,0,1,540,866.79Z"/><path class="cls-1" d="M540,1080C242.24,1080,0,837.76,0,540S242.24,0,540,0s540,242.24,540,540S837.76,1080,540,1080ZM540,72.62C282.29,72.62,72.62,282.29,72.62,540S282.29,1007.38,540,1007.38,1007.38,797.71,1007.38,540,797.71,72.62,540,72.62Z"/><rect class="cls-1" x="501.32" y="38.72" width="72.63" height="1007.3" transform="translate(-226.05 539.02) rotate(-45)"/></svg>