<svg id="Layer_1" data-name="Layer 1" xmlns="http://www.w3.org/2000/svg" viewBox="0 0 1080 1080"><defs><style>.cls-1{fill:#fff;}</style></defs><path class="cls-1" d="M424.22,419.25c-11.66,19.1-35,29.6-56.1,25.24-23.56-4.86-40.71-22.3-44.27-45a54.73,54.73,0,0,1,40.44-61.28c1.46-.38,2.85-1,4.28-1.47H387.1c13.1,3.77,24.85,9.6,33.5,20.72A54.45,54.45,0,0,1,424.22,419.25Z"/><path class="cls-1" d="M345,688.1q-50,.12-99.92,0c-14.8,0-25.77-10.29-26-24.16-.24-14.27,10.35-25.21,25.38-25.61,12.34-.33,24.7-.06,37-.1,2.33,0,4.67-.2,8.37-.37-9.47-9.72-15-20.91-29.31-24.12-19.26-4.33-29.68-19.52-29.56-39.39.24-41.8,12.15-80.23,35.3-114.93,11.55-17.3,28.18-26.14,49.45-25.05,20.38,1,32.74,15.18,30.91,35.54-.33,3.62-1.22,7.19-1.86,10.78l-1.81.77c-4.48-5.53-9.32-10.82-13.37-16.66-8.09-11.72-20.47-15.06-31.27-7.95-10.29,6.77-12.45,19.78-5,31.44a121.07,121.07,0,0,0,33.15,34.36c-4.41,16-8.72,31.41-12.84,46.84-1,3.59-1.91,7.39-1.7,11,.21,3.42,1.06,7.49,3.17,10,15,17.64,30.6,34.72,45.38,52.5,4.29,5.17,8.32,11.84,9.23,18.27C371.81,676.35,360.31,688.06,345,688.1Z"/><path class="cls-1" d="M893.94,663.45c0,14.44-11.1,24.66-26.81,24.68-32.65,0-65.29-.1-97.93,0-11.34.05-19.83-4.55-24.31-14.84-4.32-9.93-2.48-19.32,4.94-27.5q15.79-17.36,31.45-34.84c1.72-1.91,3.36-3.9,5.05-5.85-.13-.85-.27-1.69-.4-2.54l-77.61-12.75c4.25-5,9.68-11.56,15.25-18,5.39-6.22,8-13.13,5.62-21.29-4.84-16.57-24.56-21-36.92-8.63-6.43,6.43-13.51,12.21-20.3,18.3-.94-.57-1.87-1.15-2.8-1.73,2-6.27,3.14-13,6.22-18.71,10.87-20.13,28.84-28.77,51.12-29.47,39.41-1.22,76.5,7.42,111.12,26.28,18.74,10.21,25.93,28,20,49.41-3.72,13.46-9,26.12-19.34,36.19-4.68,4.56-8.78,9.7-13.91,15.46,2.91.25,4.74.54,6.56.54,12.13,0,24.27-.09,36.4,0C882.79,638.4,894,649.07,893.94,663.45Z"/><path class="cls-1" d="M669.82,491.07a54.47,54.47,0,0,1-55.22,53.26c-30.38-.56-54.49-25.23-53.92-55.2.59-30.53,25.5-53.74,57.17-53.26C646.18,436.3,670.46,462.1,669.82,491.07Z"/><path class="cls-1" d="M719.26,567.59c-25.61,27.64-57.16,42.59-93.48,43.66-18.94-.47-35.68-3.74-51.72-10.42-9.32-3.89-13.24-12.27-9.81-20.69s11.76-11.93,21.39-8.22c42.73,16.47,79.33,6.73,110.77-25.5,6.75-6.91,15.7-7.57,22.42-1.71S726.16,560.12,719.26,567.59Z"/><path class="cls-1" d="M432.11,525.52c-14.78,6.09-30.08,9.74-46.23,9.64-38.6-.94-67.18-19.29-88-50.88-5.66-8.6-3.51-18.13,4.44-22.9,7.63-4.57,16.53-2,22.12,6.44,22,33.1,54.57,43.84,91.86,30.31,1.45-.53,2.88-1.07,4.32-1.58,9.39-3.36,17.88.16,21.17,8.74C444.94,513.39,441,521.85,432.11,525.52Z"/><path class="cls-1" d="M535.93,570.22H464.87c2-5.37,3.78-10.25,5.59-15.14,6.23-16.89,12.57-33.73,18.6-50.7,1.38-3.87,3.17-5.39,7.48-5.34,13.27.17,13.35-.07,18.13,12.7q9.9,26.53,19.62,53.14C534.88,566.48,535.3,568.16,535.93,570.22Z"/><path class="cls-1" d="M466.51,686.55H418.05V638.82h48.2c.11,2,.24,3.54.24,5.07C466.52,657.92,466.51,672,466.51,686.55Z"/><path class="cls-1" d="M526.19,638.28v48.44H477.55c0-11.5,0-22.86,0-34.23,0-14.17.05-14.18,14.14-14.21Z"/><rect class="cls-1" x="538.39" y="638.68" width="47.87" height="48.16"/><rect class="cls-1" x="453.52" y="609.85" width="92.32" height="19.24"/><rect class="cls-1" x="435.41" y="581.58" width="92.83" height="18.83"/><path class="cls-1" d="M1014.85,465.35A480.42,480.42,0,0,0,614.66,65.16a75.35,75.35,0,0,0-149.31,0A480.46,480.46,0,0,0,65.16,465.35a75.34,75.34,0,0,0,0,149.3,480.39,480.39,0,0,0,400.19,400.19,75.35,75.35,0,0,0,149.31,0,480.46,480.46,0,0,0,400.19-400.19,75.34,75.34,0,0,0,0-149.3Zm4,115.74A43.48,43.48,0,1,1,1048.13,540,43.16,43.16,0,0,1,1018.87,581.09ZM540,31.87a43.44,43.44,0,1,1-41.09,29.26A43.54,43.54,0,0,1,540,31.87ZM31.87,540a43.45,43.45,0,1,1,29.27,41.1A43.57,43.57,0,0,1,31.87,540ZM540,1048.13a43.44,43.44,0,1,1,41.1-29.26A43.54,43.54,0,0,1,540,1048.13Zm72.15-65.21a75.35,75.35,0,0,0-144.29,0c-189.76-30.79-340-181-370.78-370.77a75.36,75.36,0,0,0,0-144.3c30.8-189.76,181-340,370.78-370.77a75.35,75.35,0,0,0,144.29,0c189.76,30.79,340,181,370.78,370.77a75.35,75.35,0,0,0,0,144.3C952.13,801.91,801.91,952.13,612.15,982.92Z"/></svg>