<svg id="Layer_1" data-name="Layer 1" xmlns="http://www.w3.org/2000/svg" viewBox="0 0 1080 1080"><defs><style>.cls-1{fill:#fff;}</style></defs><path class="cls-1" d="M895.57,15.58Q871.29,8.51,846.92,1.72c-13.51-3.73-26-1.39-37.27,7A40.58,40.58,0,0,0,794.9,30.58c-4.4,15.3-8.73,30.62-13.09,45.93Q745.72,203.2,709.65,329.9a50.64,50.64,0,0,0-.13,27.57c2.63,9.67,5.4,19.3,8.11,28.94l13.26,47c2.17,7.69,4.3,15.38,6.52,23,1,3.49,3.57,5.63,6.54,5.14a10.11,10.11,0,0,0,4.86-2.24c9.11-8.15,18.08-16.44,27.09-24.69,15.82-14.48,31.57-29,47.47-43.44a51.14,51.14,0,0,0,15.81-25.43c1.09-4.2,2.36-8.36,3.55-12.54l65-228.31Q915.92,96.39,924,67.83A41.6,41.6,0,0,0,920.84,36C914.89,25.67,906.65,18.8,895.57,15.58ZM720.82,333.65q8.89-31.35,17.85-62.7L767,171.54q14.07-49.41,28.14-98.81c.85-3,1.61-6,2.4-8.89l18,5.19L738.67,339,719.91,338C720.21,336.56,720.41,335.08,720.82,333.65ZM827.38,72.32l47,13.34Q836,220.72,797.49,355.84c-4-.22-8.18-.58-12.4-.67a47.61,47.61,0,0,1-19-4.33c-2.79-1.29-5.42-2.94-8.13-4.41-2.52-1.37-5.05-2.71-7.44-4Q788.95,207.43,827.38,72.32ZM746.56,445.55l-11.55-41,42.81,12.27Zm66.31-60.76c-7.86,7.18-15.75,14.33-23.58,21.54a2,2,0,0,1-2.22.51q-27.26-7.8-54.53-15.53a2.29,2.29,0,0,1-1.81-1.84c-3.28-11.87-6.63-23.72-10-35.58-.33-1.19-.54-2.43-.83-3.77,11.7-.34,22.93.35,32.95,6.93A58.16,58.16,0,0,0,775.35,366a70.83,70.83,0,0,0,11.08,1,50.38,50.38,0,0,1,26.65,7.63c2.08,1.28,4.22,2.48,6.58,3.86C817.31,380.63,815.11,382.74,812.87,384.79Zm12.85-16.7-16.38-8.94L886.16,89.22l17.46,5ZM913.17,62.68c-1.68,6.64-3.72,13.19-5.61,19.83L800.91,52.08c1.31-4.45,2.6-9,4-13.57A95.55,95.55,0,0,1,808.08,29a27.42,27.42,0,0,1,10-11.77c8.08-5.54,16.82-6.72,26.15-4.06,15.76,4.48,31.51,9,47.28,13.45A30.11,30.11,0,0,1,910.11,41,28.4,28.4,0,0,1,913.17,62.68Z"/><path class="cls-1" d="M510.66,788.36c-17.79-5.49-36.57-11.1-54.74-16.52l-8.71-2.6,7-23.34,8.7,2.6c18.23,5.44,37.07,11.06,55,16.58Z"/><path class="cls-1" d="M523,1018.55l-9.34-22.5c39.64-16.44,72.77-32.18,98.49-46.78l12,21.18C597.57,985.54,563.53,1001.72,523,1018.55ZM706.59,885.93l-24.21-2.61c.08-.8.13-1.61.13-2.39,0-17.69-23.14-36.64-68.77-56.33l9.65-22.37c35.83,15.47,83.48,40.45,83.48,78.7A46.69,46.69,0,0,1,706.59,885.93Z"/><path class="cls-1" d="M355.84,1080s35.17-37.65,54.81-44.64l8.17,23C399,1065.35,377.84,1072.65,355.84,1080Z"/><path class="cls-1" d="M388.28,751.33c-54.07-16.9-115.5-37.7-161.16-63.82-50.63-29-74.46-60.5-72.85-96.39,1.54-34.22,16.44-62.29,44.3-83.44,56-42.54,184.73-54.59,289.7-41.95,115.29,13.87,244,57.95,244,57.95-1-.23-100.78-23.09-214.81-33.73-148.74-13.87-253.92-1-304.18,37.14-22.12,16.8-33.47,38.1-34.68,65.12-1.17,25.9,18.66,50.16,60.61,74.16,43.88,25.1,106.59,46.17,156.32,61.71Z"/></svg>