<svg id="Layer_1" data-name="Layer 1" xmlns="http://www.w3.org/2000/svg" viewBox="0 0 1080 1080"><defs><style>.cls-1{fill:#fff;}</style></defs><path class="cls-1" d="M864.06,681.4c-103.69.29-207.35.06-311,.06q-157.81,0-315.62.12c-11.05,0-20.81-1.87-25.75-12.67-5.11-11.22-5.68-23.48,1.23-33.74,3.53-5.24,11.12-8.36,17.53-10.83,4.33-1.66,9.75-.54,14.68-.54q307,0,614.12,0c50.23,0,87.7-37.9,86.66-87.16-1-45-38.41-79.25-87.92-79.87-30-.39-60-.07-90-.07q-263.78,0-527.53,0c-25,0-35.14-12-31.38-36.72,1.89-12.56,10.12-20.33,22.79-21.36,2.64-.22,5.31-.09,8-.09q309.93,0,619.84,0c69.75,0,127.14,45.7,141.36,112.21C1019.63,597.72,953,681.12,864.06,681.4Z"/><path class="cls-1" d="M916.19,549.08c-3.51,24.69-26.62,44.9-52.4,45.38-17.85.32-35.7.09-53.57.09H261.86v-109h17.07q287.74,0,575.49.14c8.59,0,17.62.79,25.76,3.37C905.52,497.07,920,522,916.19,549.08Z"/><path class="cls-1" d="M104.64,434.37l18.77,6.79c-9.52-10.92-18.51-28.54-23.77-42.74-5.27,14.2-14.26,31.82-23.78,42.74l18.78-6.79V645.63l-18.78-6.79c9.52,10.92,18.51,28.54,23.78,42.74,5.26-14.2,14.25-31.82,23.77-42.74l-18.77,6.79Z"/></svg>