<svg id="Layer_1" data-name="Layer 1" xmlns="http://www.w3.org/2000/svg" viewBox="0 0 1080 1080"><defs><style>.cls-1{fill:#fff;}</style></defs><path class="cls-1" d="M802.55,573.15c14.9-31.61,12.47-62.12-8.16-90.36-4.33-5.93-5.56-10.93-4.45-17.77,4.81-29.59-4.1-55.15-25.87-75.14-10.41-9.57-23.7-16-36.32-24.26,5.61-36-4.18-56.92-36.93-76.57-2.25-1.35-4.27-3.11-6.38-4.68-20.23-15-41.71-27.76-65.78-35.49-16.66-5.33-33.84-10.5-51.26-4.72-10,3.31-19.12,9.29-26.9,13.21-10.13-4.71-19.43-10.66-29.58-13.44-22.59-6.14-44.14,1.19-63.94,10.74-20,9.67-38.4,22.77-57.54,34.3-33,19.92-43.14,41.32-36.68,78.83C310.19,380.86,280,424,290.62,471.67c.54,2.42-1.58,5.91-3.33,8.26-21.41,28.71-25.14,59.52-10.36,92.06,2.86,6.3,3.34,10.75.17,17.15a85.46,85.46,0,0,0,25.85,107c5,3.67,6.83,7.3,6.93,13.68.65,41.77,21.09,70.81,58.27,88.89a31.69,31.69,0,0,1,11,9c32.24,42.69,90.77,52.83,133.82,22.17,10.24-7.28,18.6-17.22,28-26.08a16.5,16.5,0,0,1,1.44,1.62c42.35,56.5,117.48,56.48,160,.06a22.5,22.5,0,0,1,8.28-6.36c38.7-18,59-47.94,60-91,.08-3.73,2.72-8.59,5.71-10.91,34.77-26.79,45.43-70.56,25.76-109.56C799.32,582.13,800.12,578.29,802.55,573.15Zm-303.77,231c-31.95,24.35-76.93,16.38-98.19-17.84-4.3-6.93-9.52-10.76-17.18-13.43-30-10.45-47.93-39.7-43.9-71.45,1.46-11.61-1.5-19-12.6-24.63-28.48-14.41-35.94-51.41-25.32-69.65,15.87,4.62,30.87,10.4,46.42,13.09,13.73,2.39,20.7-3.22,21.4-12.69s-5.49-14.76-19.3-16.15c-25.58-2.59-44.49-18.09-50.63-42.94-5-20.2-.81-38.87,14.4-53.65,7.95-7.72,10.71-14.58,6.94-26-7.63-23.16-1.06-43.77,17.26-59.81,17.39-15.23,37.72-18.77,59-9.84,21.91,9.18,33.79,26.63,35.83,50.38,1,12,5.88,17.55,15.74,16.88,9.17-.64,14.62-8.39,13.57-19.28-4.05-42.27-31.43-72.09-73.35-80.61-2.91-.59-6.4-4.35-7.39-7.37-5.56-17.13,3.33-35.89,20-43.49s36.46-1.16,46.82,14.63c2.58,3.93,6.12,9.06,10,9.86,4.72,1,12.57-.47,14.86-3.77,2.93-4.22,4.32-13.19,1.74-16.88-8.12-11.59-18.41-21.66-28.24-32.75,14.29-7.41,31.08-14.8,50-15.13,17.1-.29,28.42,9.81,28.83,26.91.6,23.75.16,47.53.16,72.2-7.53-1.76-14.34-3.66-21.27-4.93-10.16-1.84-18.32,3.16-19.73,11.62-1.61,9.54,4,15.84,15.39,17.19,15.71,1.85,25.1,12.17,25.57,28.68.32,11.23.06,22.46.06,33.69q.14,143.2.25,286.4C525.91,767.67,518.86,788.82,498.78,804.13ZM753.6,676.43c-11.18,6.06-14.62,13.28-13.06,25.4,4.06,31.58-14.2,60.76-44.36,71.19-7.29,2.53-12.36,6.14-16.44,12.86-15.65,25.75-46.23,37.88-74.31,30.2a68.5,68.5,0,0,1-51-64.34c-1-28.43,18.63-55.91,46.82-65.52,1.55-.52,3.2-.85,4.69-1.51,7.93-3.52,11.49-11.09,8.81-18.54-2.61-7.27-10.83-12-18.49-8.75-14,6-27.58,13.18-41.52,20-.06-.87-.34-3.32-.34-5.78q0-101.61,0-203.23c0-20.71,7.38-29.22,27.69-32.32,8.49-1.3,13.8-7.42,13.44-15.53s-6.37-14.32-15-13.76c-8.37.56-16.61,3-25.77,4.7-.12-2.31-.39-5.1-.4-7.89q0-50.05,0-100.12c0-23.26,13.12-35.62,35.89-31.38,15.59,2.9,30.57,9.18,44.48,13.54-10.55,11.67-20.88,21.6-29.11,33-2.73,3.78-1.92,12.59.74,17,2.09,3.43,10,5.54,14.51,4.64,4.18-.84,8.16-6,10.9-10.13,10.46-15.75,30.28-22.11,46.88-14.47s25.59,26.52,19.82,43.53c-1.06,3.12-5.23,6.77-8.45,7.34-39.79,7-69.74,40.6-72.3,81.71-.65,10.27,5,17.61,13.84,18.12,9.6.55,14.81-4.87,15.48-16.12C649,418,676,393.08,707.28,394.61c30.69,1.5,55.69,28.27,54.73,59-.16,5.51-.92,11.42-3.13,16.37-4.68,10.44-.41,17.07,6.82,24.25C795,523.43,784.5,573,745.89,587.81c-6.33,2.42-13.45,2.85-20.24,3.93-10.23,1.64-15.85,7.55-15,16.14.79,8.07,7.09,12.88,16.86,12.88,16.45,0,26.76-3.29,49.63-16.15C790,629.72,779.77,662.23,753.6,676.43Z"/><path class="cls-1" d="M488.25,511.43c-11.49,12-25.73,19.05-41.48,23.8a14.17,14.17,0,0,0-8.1,7.41c-10.23,26.94-29.6,42-57.9,45.92C370,590,362,584.45,361.22,575.39c-.84-9.81,4.78-15.15,16.54-16.22,14.67-1.34,25-8.9,31.94-23.42-19.93-5.26-36.25-14.46-49.05-29.6-12.6-14.9-18.87-32.23-20.57-51.38-1-11,4.88-18.35,14.22-18.63s14.39,5.63,15.2,16.65c1.7,23.36,13.05,40.76,34.5,50.1s41.78,6,60.09-8.92c3.53-2.88,7.68-7.29,11.36-7.12,5.17.25,11.57,2.91,14.87,6.75C495,499,493.46,506,488.25,511.43Z"/><path class="cls-1" d="M481.69,619.05c-30.27,3.66-48.54,18.09-55.5,43.84-3.62,13.45-2.72,15.25,9,22.9,25.53,16.64,38.83,40.52,40.72,70.76.61,9.82-5.32,16.49-14.05,16.82-9.24.36-14.42-4.94-15.11-15.44-2-30.17-24.73-54.43-52.56-56-13.56-.78-19.23-5-19.37-14.59s5.81-14.39,19.76-15.33c5.19-38.32,24.32-65.29,61.31-77.59,7.65-2.54,16.07-3.29,24.2-3.77,9.74-.57,15.76,4.91,16.23,13.34S491.42,617.87,481.69,619.05Z"/><path class="cls-1" d="M698.57,577c-.82,9.09-9,14.65-19.61,13.2-28.74-3.89-48.42-18.92-58.16-46.7-1-2.83-4.9-5-7.93-6.7-12.59-6.84-26-12.45-37.88-20.29-10.13-6.67-11.09-16.52-4.78-23.73,6.1-7,14-6.4,23.29,1.46,17.44,14.75,37,19.85,58.81,11.54,21.59-8.19,34-24.06,37.09-47,.31-2.28.63-4.57.92-6.86,1.25-10,6.34-14.57,15.5-14,8.36.54,12.92,5.88,13.15,15.38.87,36.17-25.34,71.1-61.48,81.91-2.16.65-4.32,1.32-7.75,2.35,7.11,14.61,17.84,22.13,32.85,23.55C693.36,562.16,699.37,568.09,698.57,577Z"/><path class="cls-1" d="M705.14,713.74c-37,4-54,21.08-58.11,58.52-.91,8.29-7.13,13.55-15.46,13.08-8.6-.48-14.47-7.31-13.79-17.1,2.19-31,15.85-55.7,42.88-71.34,8.22-4.75,9.17-10,8.11-17.46-3.39-23.65-24.31-44.05-48.1-47.1-3.27-.42-6.55-.76-9.82-1.28-9.06-1.42-13.81-6.94-13.26-15.33.53-8.15,6.19-13,15.37-13.26,38.7-1,76,29.23,83.68,67.75.89,4.47,1.73,8.95,2.6,13.42l2.1-2.33c5.63,4.15,13.15,7.19,16.45,12.74C722.85,702.55,715.48,712.63,705.14,713.74Z"/><path class="cls-1" d="M1014.85,465.35A480.42,480.42,0,0,0,614.66,65.16a75.35,75.35,0,0,0-149.31,0A480.46,480.46,0,0,0,65.16,465.35a75.34,75.34,0,0,0,0,149.3,480.39,480.39,0,0,0,400.19,400.19,75.35,75.35,0,0,0,149.31,0,480.46,480.46,0,0,0,400.19-400.19,75.34,75.34,0,0,0,0-149.3Zm4,115.74A43.48,43.48,0,1,1,1048.13,540,43.16,43.16,0,0,1,1018.87,581.09ZM540,31.87a43.44,43.44,0,1,1-41.09,29.26A43.54,43.54,0,0,1,540,31.87ZM31.87,540a43.45,43.45,0,1,1,29.27,41.1A43.57,43.57,0,0,1,31.87,540ZM540,1048.13a43.44,43.44,0,1,1,41.1-29.26A43.54,43.54,0,0,1,540,1048.13Zm72.15-65.21a75.35,75.35,0,0,0-144.29,0c-189.76-30.79-340-181-370.78-370.77a75.36,75.36,0,0,0,0-144.3c30.8-189.76,181-340,370.78-370.77a75.35,75.35,0,0,0,144.29,0c189.76,30.79,340,181,370.78,370.77a75.35,75.35,0,0,0,0,144.3C952.13,801.91,801.91,952.13,612.15,982.92Z"/></svg>