<svg id="Layer_1" data-name="Layer 1" xmlns="http://www.w3.org/2000/svg" viewBox="0 0 1080 1080"><defs><style>.cls-1{fill:#fff;}</style></defs><path class="cls-1" d="M1075.36,921.41Q981,637,885.77,352.81c-12.59-37.61-41.29-57.67-80.94-57.75-36.61-.08-73.19,0-109.78-.05-3.93,0-7.84-.46-12.33-.74,45.45-91.53,6.84-170.6-40-207.85C585.6,41,507.68,37.61,448,78.56c-29.71,20.4-50.55,47.74-62.19,81.8-15.68,45.88-10.44,90.23,12.28,134.06-5.69.26-9.78.59-13.84.59-36.58.05-73.19-.05-109.78.05-38.35.1-67.32,20.07-79.43,56.19Q99.42,636.6,4.52,922.2c-18.23,55,20.83,107.74,78.94,107.77q456.38.19,912.73,0C1055,1030,1093.84,977.14,1075.36,921.41ZM539.7,131.33a81.86,81.86,0,1,1-81.5,82.21A81.59,81.59,0,0,1,539.7,131.33ZM541,902.52c-126,.28-227.2-100-227.48-225.52-.25-126,100.06-227.2,225.52-227.48,126-.25,227.22,100.08,227.48,225.52C766.82,801.06,666.48,902.26,541,902.52Z"/><path class="cls-1" d="M539.08,599.62H538c-64.44.12-148.91,29.54-197.1,71.67A444.83,444.83,0,0,1,538.06,625h1C609.8,625,678,640.83,739.3,670.88,679,630.8,604.72,599.62,539.08,599.62Z"/><path class="cls-1" d="M563.85,819.68a27.48,27.48,0,0,0-20-13.47L465.18,703.72l61.11,105.85,0,0L465.13,703.74,514.5,823.11a27.53,27.53,0,1,0,49.35-3.43Z"/></svg>