<svg id="Layer_1" data-name="Layer 1" xmlns="http://www.w3.org/2000/svg" viewBox="0 0 1080 1080"><defs><style>.cls-1{fill:#fff;}</style></defs><path class="cls-1" d="M144,0V1080H673.22l51.6-39.08,172.1-130.37L936,881V0ZM686.2,1021.14V890.78H858.3ZM896.92,851.69H647.12v189.23h-464V39.08H896.92Z"/><path class="cls-1" d="M399.64,618.16a4.64,4.64,0,0,1-3.24-1.34,4.36,4.36,0,0,1-1.45-3.35,5.5,5.5,0,0,1,.45-2l53.82-144a8.38,8.38,0,0,1,2.57-3.91,7.63,7.63,0,0,1,5.25-1.67h24.34a7.2,7.2,0,0,1,5.13,1.67,10.77,10.77,0,0,1,2.68,3.91l53.83,144a11.17,11.17,0,0,1,.22,2,4.55,4.55,0,0,1-1.34,3.35,4.26,4.26,0,0,1-3.13,1.34H519.34a6.26,6.26,0,0,1-4.58-1.45,7.37,7.37,0,0,1-1.89-2.79l-10.5-27.24H436l-10.49,27.24a7.53,7.53,0,0,1-1.9,2.79,6.26,6.26,0,0,1-4.58,1.45ZM443.86,561h50.69L469.1,492Z"/><path class="cls-1" d="M634.8,618.16a5.33,5.33,0,0,1-5.36-5.35V584.22H558.65a5.08,5.08,0,0,1-3.91-1.56,5.37,5.37,0,0,1-1.45-3.8V563.67a11.58,11.58,0,0,1,.56-3.24,9.4,9.4,0,0,1,1.89-3.46l65.89-91.34a9.78,9.78,0,0,1,8.26-3.79h24.34a5.33,5.33,0,0,1,5.36,5.36v90.67h19.88a5.59,5.59,0,0,1,4.13,1.45,5.32,5.32,0,0,1,1.45,3.91v15.63a5.33,5.33,0,0,1-5.36,5.36h-20.1v28.59a5.33,5.33,0,0,1-5.36,5.35Zm-50.47-59.4h45.78V494.22Z"/></svg>