<?xml version="1.0" encoding="utf-8"?>
<!-- Generator: Adobe Illustrator 24.3.0, SVG Export Plug-In . SVG Version: 6.00 Build 0)  -->
<svg version="1.1" id="Layer_1" xmlns="http://www.w3.org/2000/svg" xmlns:xlink="http://www.w3.org/1999/xlink" x="0px" y="0px"
	 viewBox="0 0 1080 1080" style="enable-background:new 0 0 1080 1080;" xml:space="preserve">
<style type="text/css">
	.st0{fill:#FFFFFF;}
	.st1{fill:#75CEDF;}
	.st2{fill:#54C6D8;}
	.st3{fill:#BCBEC0;}
	.st4{fill:#231F20;}
	.st5{fill:#A3CF5F;}
	.st6{fill:#7BC143;}
	.st7{fill:#FBF395;}
	.st8{fill:#FFE500;}
	.st9{fill:#F58570;}
	.st10{fill:#F26346;}
</style>
<path class="st0" d="M1075,989c0.5,39.7-31.3,72.4-71,72.9l-670.6,9l-24.6,0.3l-58,0.8l-51.5,0.7l-51.9,0.7l-58.6,0.8l-7.9,0.1
	c-19.6,0.3-38.5-7.5-52.2-21.4c-0.2-0.1-0.3-0.3-0.5-0.5c-12.8-13.1-20-30.7-20.2-49L8,992.2l-0.8-58l-0.7-51.9l-0.7-51.4L5,772.3
	l0-7.9c-0.5-39.7,31.3-72.3,71-72.9l11-0.2l58-0.8l244.4-3.3l143.9-1.9l388.9-5.2l76.7-1c39.7-0.5,72.4,31.2,72.9,70.9
	c0,0,0,0,0,0.1L1075,989z"/>
<path class="st1" d="M970.2,986.4l-189.6,2.5c-11.4,0.2-20.7-8.9-20.8-20.3L757.2,779c-0.2-11.4,8.9-20.7,20.3-20.8l189.6-2.5
	c11.4-0.2,20.7,8.9,20.8,20.3l2.5,189.6C990.7,976.9,981.6,986.2,970.2,986.4z"/>
<path class="st2" d="M644.5,990.7l-189.6,2.5c-11.4,0.2-20.7-8.9-20.8-20.3l-2.5-189.6c-0.2-11.4,8.9-20.7,20.3-20.8l189.6-2.5
	c11.4-0.2,20.7,8.9,20.8,20.3l2.5,189.6C664.9,981.2,655.8,990.6,644.5,990.7z"/>
<circle class="st3" cx="198" cy="881.3" r="33.3"/>
<path class="st4" d="M198,919.5c-20.8-0.1-37.5-17.1-37.4-37.9c0.1-20.8,17.1-37.5,37.9-37.4s37.5,17.1,37.4,37.9
	c-0.1,20.6-16.8,37.2-37.4,37.4H198z M198,853h-0.4c-15.6,0.1-28.2,12.9-28.1,28.5c0.1,15.6,12.9,28.2,28.5,28.1h0.4
	c15.6-0.1,28.2-12.9,28.1-28.5C226.4,865.5,213.6,852.9,198,853z"/>
<path class="st0" d="M988.5,641.5l-66.3,38.7l-532.8,311l-51.4,30l-87.1,50.9l-1.2,0.7h-50.3l-51.9,0.7l-58.6,0.8l-0.9-1.5l-30-51.3
	L7.3,934.2L6.6,933v-50.7l-0.7-51.4l-0.8-58.6l1.5-0.9l51.3-29.9l87.1-50.9L389.4,548l338.9-197.9l67.2-39.3
	c34.3-20,78.4-8.4,98.4,25.9c0,0,0,0,0,0l120.4,206.3C1034.4,577.4,1022.8,621.5,988.5,641.5C988.5,641.5,988.5,641.5,988.5,641.5z"
	/>
<path class="st5" d="M921.8,592.4l-163.8,95.6c-9.8,5.7-22.4,2.4-28.1-7.4l-95.6-163.8c-5.7-9.8-2.4-22.4,7.4-28.1l163.8-95.6
	c9.8-5.7,22.4-2.4,28.1,7.4l95.6,163.8C935,574,931.6,586.6,921.8,592.4z"/>
<path class="st6" d="M640.5,756.6l-163.8,95.6c-9.8,5.7-22.4,2.4-28.1-7.4L353,681c-5.7-9.8-2.4-22.4,7.4-28.1l163.8-95.6
	c9.8-5.7,22.4-2.4,28.1,7.4l95.6,163.8C653.6,738.3,650.3,750.9,640.5,756.6z"/>
<circle class="st3" cx="198" cy="881.3" r="33.3"/>
<path class="st4" d="M198,919.5c-3.3,0-6.6-0.4-9.8-1.3c-20.3-5.4-32.4-26.2-27-46.5c5.4-20.3,26.2-32.4,46.5-27
	c20.3,5.4,32.4,26.2,27,46.5C230.3,907.9,215.2,919.5,198,919.5z M197.9,853c-15.6,0-28.2,12.7-28.2,28.4
	c0,15.6,12.7,28.2,28.4,28.2c15.6,0,28.2-12.7,28.2-28.4c0-5-1.3-9.9-3.9-14.2C217.3,858.3,208,853,197.9,853z"/>
<path class="st0" d="M767.4,282.9l-39.1,67.3l-195,335.2L389.4,932.9l-51.4,88.3l-29.1,50.1l-0.8,1.5H199.4l-51.9,0.7l-1.2-0.7
	l-88.3-51.3L8,992.2l-1.5-0.8V882.3l-0.7-51.4l0.7-1.2l51.3-88.2L87,691.3l302.4-519.9l47.2-81.1c20-34.3,64-46,98.4-26l206.5,120.1
	C775.7,204.5,787.4,248.5,767.4,282.9C767.4,282.8,767.4,282.8,767.4,282.9z"/>
<path class="st7" d="M685.2,273l-95.3,163.9c-5.7,9.8-18.3,13.2-28.1,7.4L397.9,349c-9.8-5.7-13.2-18.3-7.4-28.1L485.8,157
	c5.7-9.8,18.3-13.2,28.1-7.4l163.9,95.3C687.6,250.6,690.9,263.2,685.2,273z"/>
<path class="st8" d="M521.4,554.6l-95.3,163.9c-5.7,9.8-18.3,13.2-28.1,7.4l-163.9-95.3c-9.8-5.7-13.2-18.3-7.4-28.1L322,438.6
	c5.7-9.8,18.3-13.2,28.1-7.4L514,526.5C523.8,532.2,527.2,544.8,521.4,554.6z"/>
<circle class="st3" cx="198" cy="881.3" r="33.3"/>
<path class="st4" d="M197.9,919.5c-21.2,0-38.4-17.2-38.4-38.3c0-21.2,17.2-38.4,38.3-38.4c21.2,0,38.4,17.2,38.4,38.3
	c0,17.4-11.7,32.6-28.5,37.1C204.5,919.1,201.2,919.5,197.9,919.5z M198,853c-15.6,0-28.3,12.6-28.3,28.3
	c0,15.6,12.6,28.3,28.3,28.3c10.1,0,19.4-5.3,24.5-14l0,0c7.9-13.5,3.3-30.8-10.2-38.7C207.9,854.3,203,853,198,853z"/>
<path class="st0" d="M389.4,77.7v923.1c0,39.7-32.1,71.9-71.8,71.9c-0.1,0-0.1,0-0.2,0H78.5c-18.5,0-36.3-7.1-49.6-19.9
	c-0.2-0.1-0.3-0.3-0.5-0.5c-14-13.5-21.9-32.1-21.9-51.6V77.7c0-39.7,32.3-71.9,72-71.9h238.9C357.2,5.8,389.4,38,389.4,77.7z"/>
<path class="st9" d="M313.3,110.5v189.6c0,11.4-9.2,20.6-20.6,20.6H103.1c-11.4,0-20.6-9.2-20.6-20.6V110.5
	c0-11.4,9.2-20.6,20.6-20.6h189.6C304.1,89.9,313.3,99.1,313.3,110.5z"/>
<path class="st10" d="M313.4,436.3v189.6c0,11.4-9.2,20.6-20.6,20.6H103.2c-11.4,0-20.6-9.2-20.6-20.6V436.3
	c0-11.4,9.2-20.6,20.6-20.6h189.6C304.1,415.7,313.4,424.9,313.4,436.3z"/>
<circle cx="198" cy="881.3" r="33.3"/>
</svg>
